<svg width="71" height="84" viewBox="0 0 71 84" fill="none" xmlns="http://www.w3.org/2000/svg">
<path d="M48.4473 61.3043C37.1229 65.4585 42.6381 77.499 46.8113 83C38.7732 83 35.0031 72.4725 35.1454 72.6859C31.0196 59.2416 46.3845 52.9819 46.3845 52.9108C48.2055 52.1141 48.9927 50.2077 49.1587 49.3541V39.8222C48.9879 38.2288 49.704 37.4985 50.0834 37.3325C50.8659 36.1233 58.6194 23.0347 58.7617 22.8213C61.4648 8.73688 47.0958 10.8709 47.1669 10.7997C39.9825 3.40187 30.5928 3.75753 30.664 3.75753C28.1743 3.75753 29.099 2.61929 29.0279 2.61929C33.5093 0.271884 45.3886 1.12549 45.1752 1.26775C63.6699 4.46876 66.8709 16.0635 66.7286 16.0635C67.753 18.1122 67.4874 24.9789 67.2266 28.1562C65.6332 30.6601 66.7523 34.5108 67.5111 36.1232C68.341 37.7355 70.0008 40.946 70.0008 40.8891C70.7406 41.8565 70.309 42.6674 70.0008 42.952L65.3771 45.086V47.22C65.5905 48.0024 65.0926 48.8561 65.1637 48.9272C63.172 48.9983 63.8122 50.2787 63.8122 50.2076C64.8792 51.2035 63.9544 52.1993 63.8122 52.3416C60.7534 52.9107 61.1091 57.6766 61.038 57.5343C60.7534 61.3044 58.6194 61.7311 58.6906 61.66C54.0669 60.0239 48.3051 61.3043 48.4473 61.3043Z" fill="#FB7957" stroke="black" stroke-width="0.284534" stroke-linejoin="round"/>
<path d="M1.42815 24.7458C0.36115 22.8726 -0.478225 19.2116 4.70029 19.553C4.64339 19.553 7.9013 16.9447 9.53738 15.6406C9.63222 14.2416 10.3625 11.2445 12.525 10.4478C15.2281 9.45197 17.9311 13.2932 17.2198 14.787C17.2767 14.8439 18.761 16.2809 19.4961 16.9923C21.1796 16.0675 25.016 14.9863 26.8939 18.0593C26.9509 18.1162 29.0042 17.8459 30.0238 17.7036C30.8774 14.9057 33.5663 10.7183 37.4928 16.3521C37.6351 16.3521 38.0619 18.4149 36.3547 20.2644C36.2409 20.2644 36.9238 22.6355 37.2794 23.8211C37.9908 24.0345 39.385 24.76 39.2712 25.9551C39.3281 25.9551 42.0928 26.1922 43.468 26.3108C44.2505 25.3623 46.3276 23.6219 48.3763 24.2479C48.3194 24.191 49.7278 22.7067 50.4391 21.9716C49.9175 19.4819 50.1261 15.0005 55.1339 16.9923C55.0628 16.85 58.5483 22.2561 52.1463 22.7541L50.1546 25.6705C50.7474 28.4448 50.4391 33.3103 44.4639 30.5788C44.3928 30.5076 43.468 29.5829 43.468 28.587C43.468 28.6439 39.0578 28.2314 36.8526 28.018C36.0702 27.686 34.6617 26.6664 35.2877 25.2437C35.1739 25.3576 34.5764 22.3984 34.2918 20.9046C33.5805 20.9046 31.9444 20.6201 31.0908 19.4819C31.0908 19.5388 28.8146 20.0273 27.6764 20.2644C27.5579 22.8015 25.7558 27.2782 19.4961 24.8881L14.3033 29.4406C14.3507 30.0097 14.3033 31.3612 13.7343 32.2148C13.8481 32.2717 15.1569 33.3767 15.7971 33.922C16.6033 33.5189 18.4006 32.9546 19.1404 33.922L24.6177 29.4406C24.9971 27.4015 26.709 23.9349 30.5218 26.3819C30.5929 26.453 32.3712 29.9386 30.0238 31.0767V35.9138C30.8478 36.1963 32.4618 36.9275 32.3734 37.6063C32.5086 37.4621 35.0436 36.4337 36.3547 35.9138C37.066 34.3963 38.9866 32.1295 40.9784 35.2024C40.9784 35.3447 41.334 36.6251 40.6938 37.3364C40.58 37.3364 41.1206 38.0004 41.4052 38.3323C43.4206 38.4272 47.0532 39.57 45.4598 43.3828C45.1515 43.9281 43.9091 45.1184 41.4052 45.5168C41.4052 45.6306 40.3145 46.4652 39.7691 46.8683C41.1206 50.1879 41.7324 56.4287 33.3671 54.8353C33.4382 54.8353 27.3207 48.7178 34.932 45.5168C35.5722 45.3982 37.2368 45.2323 38.7732 45.5168C38.7163 45.5168 39.698 44.5209 40.1959 44.023C39.9114 43.1931 39.4277 41.0638 39.7691 39.1859C39.7691 39.2997 38.631 38.0004 38.0619 37.3364L33.3671 38.9014C32.5372 40.3715 30.2514 42.8422 27.7475 40.9642C27.6053 40.7508 25.6135 39.5416 27.3919 36.4117C27.3919 36.3548 27.1548 32.8313 27.0362 31.0767C26.8939 30.721 26.4814 30.2942 25.9692 31.4324C25.8554 31.4893 22.0806 33.9695 20.2074 35.2024C19.6146 36.554 17.9596 38.7876 16.0817 36.9096C16.0817 36.7389 14.0425 35.4633 13.0229 34.8468C10.6755 35.9612 5.85267 36.8954 5.3405 31.7169C5.41164 31.6458 5.5539 26.0262 12.525 27.7334C12.4112 27.6765 15.892 25.0541 17.6466 23.7499C17.4095 22.3984 17.0775 19.3681 17.6466 18.0593L16.0817 16.6366C15.3466 16.9686 13.3217 17.5044 11.1023 16.9923C11.0454 16.9923 7.80646 19.7902 6.1941 21.1891C6.47863 22.8252 5.92378 25.8269 1.42815 24.7458Z" fill="#FB7957"/>
<path d="M1.42815 24.7458C0.36115 22.8726 -0.478225 19.2116 4.70029 19.553C4.64339 19.553 7.9013 16.9447 9.53738 15.6406C9.63222 14.2416 10.3625 11.2445 12.525 10.4478C15.2281 9.45197 17.9311 13.2932 17.2198 14.787C17.2767 14.8439 18.761 16.2809 19.4961 16.9923C21.1796 16.0675 25.016 14.9863 26.8939 18.0593C26.9509 18.1162 29.0042 17.8459 30.0238 17.7036C30.8774 14.9057 33.5663 10.7183 37.4928 16.3521C37.6351 16.3521 38.0619 18.4149 36.3547 20.2644C36.2409 20.2644 36.9238 22.6355 37.2794 23.8211C37.9908 24.0345 39.385 24.76 39.2712 25.9551C39.3281 25.9551 42.0928 26.1922 43.468 26.3108C44.2505 25.3623 46.3276 23.6219 48.3763 24.2479C48.3194 24.191 49.7278 22.7067 50.4391 21.9716C49.9175 19.4819 50.1261 15.0005 55.1339 16.9923C55.0628 16.85 58.5483 22.2561 52.1463 22.7541L50.1546 25.6705C50.7474 28.4448 50.4391 33.3103 44.4639 30.5788C44.3928 30.5076 43.468 29.5829 43.468 28.587C43.468 28.6439 39.0578 28.2314 36.8526 28.018C36.0702 27.686 34.6617 26.6664 35.2877 25.2437C35.1739 25.3576 34.5764 22.3984 34.2918 20.9046C33.5805 20.9046 31.9444 20.6201 31.0908 19.4819C31.0908 19.5388 28.8146 20.0273 27.6764 20.2644C27.5579 22.8015 25.7558 27.2782 19.4961 24.8881L14.3033 29.4406C14.3507 30.0097 14.3033 31.3612 13.7343 32.2148C13.8481 32.2717 15.1569 33.3767 15.7971 33.922C16.6033 33.5189 18.4006 32.9546 19.1404 33.922L24.6177 29.4406C24.9971 27.4015 26.709 23.9349 30.5218 26.3819C30.5929 26.453 32.3712 29.9386 30.0238 31.0767C30.0238 31.0198 30.0238 34.2777 30.0238 35.9138C30.8537 36.1983 32.485 36.9381 32.3712 37.621C32.2574 37.5641 34.9795 36.4591 36.3547 35.9138C37.066 34.3963 38.9866 32.1295 40.9784 35.2024C40.9784 35.3447 41.334 36.6251 40.6938 37.3364C40.58 37.3364 41.1206 38.0004 41.4052 38.3323C43.4206 38.4272 47.0532 39.57 45.4598 43.3828C45.1515 43.9281 43.9091 45.1184 41.4052 45.5168C41.4052 45.6306 40.3145 46.4652 39.7691 46.8683C41.1206 50.1879 41.7324 56.4287 33.3671 54.8353C33.4382 54.8353 27.3207 48.7178 34.932 45.5168C35.5722 45.3982 37.2368 45.2323 38.7732 45.5168C38.7163 45.5168 39.698 44.5209 40.1959 44.023C39.9114 43.1931 39.4277 41.0638 39.7691 39.1859C39.7691 39.2997 38.631 38.0004 38.0619 37.3364L33.3671 38.9014C32.5372 40.3715 30.2514 42.8422 27.7475 40.9642C27.6053 40.7508 25.6135 39.5416 27.3919 36.4117C27.3919 36.3548 27.1548 32.8313 27.0362 31.0767C26.8939 30.721 26.4814 30.2942 25.9692 31.4324C25.8554 31.4893 22.0806 33.9695 20.2074 35.2024C19.6146 36.554 17.9596 38.7876 16.0817 36.9096C16.0817 36.7389 14.0425 35.4633 13.0229 34.8468C10.6755 35.9612 5.85267 36.8954 5.3405 31.7169C5.41164 31.6458 5.5539 26.0262 12.525 27.7334C12.4112 27.6765 15.892 25.0541 17.6466 23.7499C17.4095 22.3984 17.0775 19.3681 17.6466 18.0593L16.0817 16.6366C15.3466 16.9686 13.3217 17.5044 11.1023 16.9923C11.0454 16.9923 7.80646 19.7902 6.1941 21.1891C6.47863 22.8252 5.92378 25.8269 1.42815 24.7458Z" stroke="black" stroke-width="0.284534" stroke-linejoin="round"/>
<circle cx="23.9064" cy="11.2285" r="3.41441" fill="#FB7957" stroke="black" stroke-width="0.284534"/>
<circle cx="18.927" cy="29.7216" r="2.134" fill="#FB7957" stroke="black" stroke-width="0.284534"/>
<circle cx="13.6631" cy="21.6087" r="2.84534" fill="#FB7957" stroke="black" stroke-width="0.284534"/>
<circle cx="22.4837" cy="42.8069" r="2.41854" fill="#FB7957" stroke="black" stroke-width="0.284534"/>
<circle cx="34.5766" cy="31.9983" r="2.41854" fill="#FB7957" stroke="black" stroke-width="0.284534"/>
<circle cx="36.4968" cy="41.8871" r="1.9206" fill="#FB7957" stroke="black" stroke-width="0.284534"/>
<circle cx="43.8948" cy="20.4044" r="2.06287" fill="#FB7957" stroke="black" stroke-width="0.284534"/>
<circle cx="40.765" cy="14.8554" r="1.20927" fill="#FB7957" stroke="black" stroke-width="0.284534"/>
<circle cx="41.1919" cy="31.3593" r="1.20927" fill="#FB7957" stroke="black" stroke-width="0.284534"/>
<circle cx="31.3755" cy="23.2461" r="1.20927" fill="#FB7957" stroke="black" stroke-width="0.284534"/>
<circle cx="24.1197" cy="35.4843" r="1.20927" fill="#FB7957" stroke="black" stroke-width="0.284534"/>
<circle cx="2.77969" cy="29.6501" r="1.35154" fill="#FB7957" stroke="black" stroke-width="0.284534"/>
</svg>
