<svg width="299" height="40" viewBox="0 0 299 40" fill="none" xmlns="http://www.w3.org/2000/svg">
<path d="M4.44141 20.1914L16.0039 19.7227L16.082 23.4727L4.48047 24.0391L4.63672 34L0.886719 34.1562L0.4375 6.32422L21.6484 5.99219L21.5117 9.72266L4.28516 9.99609L4.44141 20.1914ZM33.2695 31.0703L32.7617 34.957C31.8372 34.944 31.0169 34.7878 30.3008 34.4883C29.5977 34.1888 28.9792 33.7982 28.4453 33.3164C27.8984 32.8477 27.4297 32.3073 27.0391 31.6953C26.6615 31.0833 26.3424 30.4648 26.082 29.8398C25.457 28.3555 25.0664 26.6758 24.9102 24.8008L25.4375 0.0351562H29.5195L29.3438 6.40234C29.3177 7.36589 29.2917 8.29036 29.2656 9.17578C29.2396 10.0482 29.2135 10.8815 29.1875 11.6758C29.1484 13.2513 29.1094 14.6706 29.0703 15.9336C29.0443 17.1836 29.0182 18.2839 28.9922 19.2344C28.9271 21.487 28.888 23.2513 28.875 24.5273C28.888 25.7253 29.0638 26.806 29.4023 27.7695C29.6888 28.6549 30.138 29.4232 30.75 30.0742C31.362 30.7122 32.2018 31.0443 33.2695 31.0703ZM55.8867 24.5273C55.8867 26.168 55.6133 27.6849 55.0664 29.0781C54.5195 30.4714 53.7708 31.6823 52.8203 32.7109C51.8698 33.7396 50.7565 34.5404 49.4805 35.1133C48.2044 35.6992 46.8438 35.9922 45.3984 35.9922C42.4427 35.9922 39.9883 34.9375 38.0352 32.8281C37.0846 31.8255 36.3359 30.6211 35.7891 29.2148C35.2422 27.8086 34.9688 26.2461 34.9688 24.5273C34.9688 22.7956 35.2422 21.2266 35.7891 19.8203C36.3359 18.401 37.0846 17.1901 38.0352 16.1875C38.9727 15.1849 40.0729 14.4102 41.3359 13.8633C42.599 13.3164 43.9531 13.043 45.3984 13.043C46.8438 13.043 48.2044 13.3359 49.4805 13.9219C50.7565 14.4948 51.8698 15.2891 52.8203 16.3047C53.7708 17.3333 54.5195 18.5508 55.0664 19.957C55.6133 21.3503 55.8867 22.8737 55.8867 24.5273ZM51.7656 24.4883C51.7656 23.5508 51.6484 22.6003 51.4141 21.6367C51.1797 20.6732 50.8086 19.8138 50.3008 19.0586C49.793 18.2904 49.1354 17.6719 48.3281 17.2031C47.5208 16.7214 46.5443 16.4805 45.3984 16.4805C44.2917 16.4805 43.3411 16.7214 42.5469 17.2031C41.7526 17.6719 41.1016 18.2904 40.5938 19.0586C40.0859 19.8138 39.7148 20.6732 39.4805 21.6367C39.2461 22.6003 39.1289 23.5508 39.1289 24.4883C39.1289 25.4258 39.2526 26.3698 39.5 27.3203C39.7604 28.2578 40.151 29.1107 40.6719 29.8789C41.1927 30.6341 41.8438 31.2591 42.625 31.7539C43.4193 32.2357 44.3438 32.4766 45.3984 32.4766C46.5052 32.4766 47.4557 32.2357 48.25 31.7539C49.0573 31.2591 49.7214 30.6341 50.2422 29.8789C50.763 29.1107 51.1471 28.2578 51.3945 27.3203C51.6419 26.3698 51.7656 25.4258 51.7656 24.4883ZM64.9883 34.918L60.7891 35.4453L60.3984 24.4883C60.3724 23.7461 60.3464 22.9518 60.3203 22.1055C60.2943 21.2461 60.2682 20.4388 60.2422 19.6836C60.2161 18.9154 60.1966 18.3099 60.1836 17.8672C60.1315 16.0312 60.0924 14.651 60.0664 13.7266L64.5195 13.6484L64.5977 19.2734C65.0273 18.5312 65.5156 17.8346 66.0625 17.1836C66.6094 16.5195 67.2018 15.9336 67.8398 15.4258C68.4779 14.918 69.1549 14.5078 69.8711 14.1953C70.6003 13.8828 71.362 13.7005 72.1562 13.6484C73.1589 13.5833 74.0247 13.668 74.7539 13.9023C75.4831 14.1367 76.1081 14.4622 76.6289 14.8789C77.1497 15.2826 77.5794 15.7708 77.918 16.3438C78.2695 16.9297 78.5365 17.5156 78.7188 18.1016C78.9141 18.7005 79.0508 19.306 79.1289 19.918C79.2201 20.5169 79.2786 21.0638 79.3047 21.5586C79.3828 23.7982 79.4023 26.0508 79.3633 28.3164C79.3242 30.582 79.2786 32.9323 79.2266 35.3672L75.2227 35.2305C75.3268 33.1341 75.418 31.0378 75.4961 28.9414C75.5872 26.8451 75.5807 24.7292 75.4766 22.5938C75.4766 22.138 75.4245 21.6172 75.3203 21.0312C75.2161 20.4323 75.0273 19.8398 74.7539 19.2539C74.5586 18.8503 74.3047 18.4922 73.9922 18.1797C73.6797 17.8802 73.2956 17.6523 72.8398 17.4961C72.3971 17.3398 71.8763 17.3073 71.2773 17.3984C70.2487 17.5547 69.207 18.3034 68.1523 19.6445C67.1107 20.9466 65.9648 22.9193 64.7148 25.5625L64.8516 30.5625C64.8646 31.1875 64.8776 31.7344 64.8906 32.2031C64.9036 32.6719 64.9167 33.069 64.9297 33.3945C64.9557 34.1497 64.9753 34.6576 64.9883 34.918ZM94.3242 32.2031C95.7695 32.2031 97.0977 31.7734 98.3086 30.9141C99.5195 30.0417 100.307 28.8307 100.672 27.2812L104.441 28.043C104.077 29.2279 103.562 30.3021 102.898 31.2656C102.234 32.2292 101.46 33.056 100.574 33.7461C99.6888 34.4362 98.7122 34.9701 97.6445 35.3477C96.5898 35.7253 95.4831 35.9141 94.3242 35.9141C92.6055 35.9141 91.082 35.6536 89.7539 35.1328C88.4258 34.612 87.306 33.8763 86.3945 32.9258C84.5326 30.9857 83.6016 28.3424 83.6016 24.9961C83.6016 23.3685 83.875 21.8516 84.4219 20.4453C84.9818 19.026 85.7435 17.7956 86.707 16.7539C87.6706 15.7122 88.8034 14.8919 90.1055 14.293C91.4076 13.694 92.8138 13.3945 94.3242 13.3945C95.6784 13.3945 96.9544 13.6615 98.1523 14.1953C99.3503 14.7161 100.411 15.4388 101.336 16.3633C102.26 17.3008 103.022 18.401 103.621 19.6641C104.22 20.9271 104.598 22.2943 104.754 23.7656L87.8398 26.2852C87.931 27.2096 88.1589 28.043 88.5234 28.7852C88.901 29.5143 89.3698 30.1328 89.9297 30.6406C91.0885 31.6823 92.5534 32.2031 94.3242 32.2031ZM87.957 22.6719L99.7148 21.2461L99.5977 20.875C99.1029 19.5859 98.4193 18.5768 97.5469 17.8477C96.6875 17.1185 95.6133 16.7539 94.3242 16.7539C93.7773 16.7539 93.1784 16.8516 92.5273 17.0469C91.8763 17.2292 91.2448 17.5482 90.6328 18.0039C90.0208 18.4596 89.4674 19.0716 88.9727 19.8398C88.4909 20.5951 88.1523 21.5391 87.957 22.6719ZM126.629 29.7227C126.629 30.9596 126.382 32.0013 125.887 32.8477C125.392 33.681 124.721 34.3646 123.875 34.8984C123.042 35.4193 122.078 35.8034 120.984 36.0508C119.891 36.3112 118.758 36.4674 117.586 36.5195C116.362 36.4935 115.151 36.3698 113.953 36.1484C112.898 35.9661 111.733 35.6276 110.457 35.1328C109.181 34.638 108.035 33.9935 107.02 33.1992L108.914 30.2305C109.63 30.6081 110.359 30.9727 111.102 31.3242C111.857 31.6758 112.625 31.9818 113.406 32.2422C114.188 32.5156 114.988 32.7305 115.809 32.8867C116.629 33.043 117.475 33.1211 118.348 33.1211C119.585 33.1211 120.535 32.9193 121.199 32.5156C121.863 32.099 122.299 31.5911 122.508 30.9922C122.742 30.2109 122.514 29.4622 121.824 28.7461C121.694 28.6159 121.544 28.4987 121.375 28.3945C121.206 28.2773 121.017 28.1667 120.809 28.0625C120.392 27.8672 119.884 27.7044 119.285 27.5742C118.686 27.444 117.977 27.3594 117.156 27.3203C115.984 27.2682 114.852 27.151 113.758 26.9688C112.677 26.7734 111.714 26.474 110.867 26.0703C110.008 25.6667 109.298 25.1393 108.738 24.4883C108.191 23.8242 107.859 22.9974 107.742 22.0078C107.651 21.1094 107.716 20.25 107.938 19.4297C108.354 17.9323 109.214 16.7018 110.516 15.7383C110.841 15.5169 111.173 15.3086 111.512 15.1133C111.863 14.918 112.228 14.7422 112.605 14.5859C113.361 14.2865 114.155 14.0651 114.988 13.9219C115.835 13.7656 116.688 13.6875 117.547 13.6875C118.055 13.6875 118.654 13.7135 119.344 13.7656C120.034 13.8177 120.757 13.9219 121.512 14.0781C122.267 14.2344 123.029 14.4622 123.797 14.7617C124.565 15.0482 125.281 15.4323 125.945 15.9141L124.598 19.4883C123.738 19.0326 122.918 18.681 122.137 18.4336C121.368 18.1732 120.685 17.9714 120.086 17.8281C119.734 17.75 119.389 17.6849 119.051 17.6328C118.725 17.5807 118.413 17.5417 118.113 17.5156C116.069 17.3984 114.474 17.6133 113.328 18.1602C112.195 18.707 111.629 19.5339 111.629 20.6406C111.629 21.4219 111.844 21.9948 112.273 22.3594C112.703 22.7109 113.289 22.9648 114.031 23.1211C114.461 23.2122 115.008 23.2904 115.672 23.3555C116.349 23.4076 117.052 23.4661 117.781 23.5312C118.523 23.5964 119.194 23.6745 119.793 23.7656C121.069 23.9609 122.143 24.2539 123.016 24.6445C123.888 25.0352 124.591 25.4909 125.125 26.0117C125.659 26.5326 126.043 27.112 126.277 27.75C126.512 28.375 126.629 29.0326 126.629 29.7227ZM135.301 14.6836L135.457 6.12891L139.344 5.875L139.207 14.6055L146.785 14.3516L146.492 18.0039L139.168 18.1992L139.012 35.2305L134.891 35.3281L135.223 18.3164L128.465 18.4727L128.543 14.8789L135.301 14.6836ZM163.797 39.1562L164.109 0.191406H168.387L167.664 38.9609L163.797 39.1562ZM192.488 20.1914L204.051 19.7227L204.129 23.4727L192.527 24.0391L192.684 34L188.934 34.1562L188.484 6.32422L209.695 5.99219L209.559 9.72266L192.332 9.99609L192.488 20.1914ZM217.762 31.6367L235.047 30.2891L235.242 34.4492L213.953 35.9141L213.836 6.20703L217.879 5.99219L217.762 31.6367ZM267.254 20.1914C267.254 21.5846 267.078 22.9193 266.727 24.1953C266.036 26.7474 264.767 28.974 262.918 30.875C261.993 31.8255 260.997 32.6133 259.93 33.2383C258.823 33.9023 257.638 34.4167 256.375 34.7812C255.125 35.1458 253.823 35.3281 252.469 35.3281C251.076 35.3281 249.767 35.1458 248.543 34.7812C246.017 34.0521 243.842 32.75 242.02 30.875C241.16 29.9896 240.392 28.9674 239.715 27.8086C239.077 26.6888 238.582 25.4909 238.23 24.2148C237.879 22.9258 237.703 21.5846 237.703 20.1914C237.703 18.7982 237.879 17.457 238.23 16.168C238.934 13.5768 240.197 11.3503 242.02 9.48828C242.905 8.58984 243.901 7.80208 245.008 7.125C246.102 6.47396 247.28 5.97266 248.543 5.62109C249.806 5.25651 251.115 5.07422 252.469 5.07422C253.823 5.07422 255.132 5.25 256.395 5.60156C258.921 6.33073 261.095 7.6263 262.918 9.48828C263.816 10.3997 264.591 11.4219 265.242 12.5547C265.893 13.6745 266.388 14.8789 266.727 16.168C267.078 17.457 267.254 18.7982 267.254 20.1914ZM263.387 20.1914C263.387 19.1758 263.257 18.1797 262.996 17.2031C262.462 15.276 261.525 13.6224 260.184 12.2422C259.533 11.5651 258.797 10.9792 257.977 10.4844C256.297 9.46875 254.461 8.96094 252.469 8.96094C250.958 8.96094 249.546 9.26042 248.23 9.85938C246.915 10.4453 245.763 11.2461 244.773 12.2617C243.784 13.2773 243.003 14.4688 242.43 15.8359C241.87 17.1901 241.59 18.6419 241.59 20.1914C241.59 21.7409 241.87 23.1992 242.43 24.5664C243.003 25.9336 243.784 27.125 244.773 28.1406C245.763 29.1562 246.915 29.9635 248.23 30.5625C249.546 31.1484 250.958 31.4414 252.469 31.4414C253.471 31.4414 254.441 31.3047 255.379 31.0312C257.215 30.5104 258.816 29.5469 260.184 28.1406C260.848 27.4505 261.421 26.6953 261.902 25.875C262.371 25.0417 262.736 24.1497 262.996 23.1992C263.257 22.2357 263.387 21.2331 263.387 20.1914ZM272.391 6.07031L276.512 5.875L293.992 27.5156L293.68 6.16797L298.035 6.48047L298.27 33.3164L294.07 33.6484L276.59 12.7695L276.844 33.8438L272.762 34L272.391 6.07031Z" fill="white" fill-opacity="0.6"/>
</svg>
