<svg width="228" height="52" viewBox="0 0 228 52" fill="none" xmlns="http://www.w3.org/2000/svg">
<path d="M64.2 11C66.2 11 67.9867 11.2267 69.56 11.68C71.16 12.1067 72.5067 12.7467 73.6 13.6C74.6933 14.4267 75.5333 15.4533 76.12 16.68C76.7067 17.88 77 19.2533 77 20.8C77 22.3467 76.7067 23.7333 76.12 24.96C75.5333 26.16 74.6933 27.1867 73.6 28.04C72.5067 28.8667 71.16 29.5067 69.56 29.96C67.9867 30.3867 66.2 30.6 64.2 30.6H55.6V39H49.8V11H64.2ZM55.6 14V27.6H64.2C66.3067 27.6 67.9333 27.0533 69.08 25.96C70.2533 24.84 70.84 23.12 70.84 20.8C70.84 18.48 70.2533 16.7733 69.08 15.68C67.9333 14.56 66.3067 14 64.2 14H55.6ZM84.7906 32.4C84.7906 34.9333 86.324 36.2 89.3906 36.2H94.9906V28.6H89.3906C86.324 28.6 84.7906 29.8667 84.7906 32.4ZM94.9906 25.8C94.9906 23.88 94.484 22.4667 93.4706 21.56C92.484 20.6533 91.1906 20.2 89.5906 20.2C88.3906 20.2 87.2173 20.3867 86.0706 20.76C84.924 21.1067 83.8973 21.5867 82.9906 22.2L81.5906 19.8C82.1773 19.4 82.8173 19.0533 83.5106 18.76C84.2306 18.4667 84.964 18.2267 85.7106 18.04C86.4573 17.8267 87.1906 17.6667 87.9106 17.56C88.6573 17.4533 89.3506 17.4 89.9906 17.4C91.6973 17.4 93.204 17.6 94.5106 18C95.8173 18.4 96.924 18.9733 97.8306 19.72C98.7373 20.4667 99.4173 21.36 99.8706 22.4C100.351 23.4133 100.591 24.5467 100.591 25.8V39H89.3906C85.764 39 83.084 38.4533 81.3506 37.36C79.644 36.2667 78.7906 34.6133 78.7906 32.4C78.7906 30.1867 79.644 28.5333 81.3506 27.44C83.084 26.3467 85.764 25.8 89.3906 25.8H94.9906ZM122.372 38.2H117.172C113.359 38.2 110.532 37.52 108.692 36.16C106.879 34.7733 105.972 32.72 105.972 30V18.2H111.572V30C111.572 31.92 112.052 33.3067 113.012 34.16C113.972 34.9867 115.359 35.4 117.172 35.4H122.372V18.2H127.972V38.6C127.972 39.8533 127.732 40.9867 127.252 42C126.772 43.04 126.052 43.9333 125.092 44.68C124.159 45.4267 122.972 46 121.532 46.4C120.119 46.8 118.465 47 116.572 47C115.932 47 115.239 46.9467 114.492 46.84C113.772 46.76 113.039 46.6133 112.292 46.4C111.545 46.2133 110.812 45.96 110.092 45.64C109.399 45.3467 108.759 45 108.172 44.6L109.772 42.2C110.679 42.8133 111.692 43.2933 112.812 43.64C113.932 44.0133 115.052 44.2 116.172 44.2C118.172 44.2 119.705 43.7467 120.772 42.84C121.839 41.9333 122.372 40.52 122.372 38.6V38.2ZM144.789 17.4C145.642 17.4 146.496 17.48 147.349 17.64C148.202 17.7733 149.016 17.9733 149.789 18.24C150.589 18.48 151.322 18.7867 151.989 19.16C152.682 19.5333 153.282 19.9467 153.789 20.4L152.189 22.8C151.096 21.9733 149.976 21.3333 148.829 20.88C147.709 20.4267 146.496 20.2 145.189 20.2C144.229 20.2 143.349 20.36 142.549 20.68C141.749 20.9733 141.056 21.4667 140.469 22.16C139.882 22.8267 139.416 23.6933 139.069 24.76C138.749 25.8267 138.589 27.1067 138.589 28.6C138.589 30.0933 138.749 31.3733 139.069 32.44C139.416 33.5067 139.896 34.3867 140.509 35.08C141.122 35.7467 141.856 36.24 142.709 36.56C143.589 36.8533 144.549 37 145.589 37C146.896 37 148.109 36.7733 149.229 36.32C150.376 35.8667 151.496 35.2267 152.589 34.4L154.189 36.8C153.682 37.2533 153.082 37.6667 152.389 38.04C151.722 38.4133 150.989 38.7333 150.189 39C149.416 39.24 148.602 39.4267 147.749 39.56C146.896 39.72 146.042 39.8 145.189 39.8C143.296 39.8 141.562 39.5467 139.989 39.04C138.442 38.56 137.122 37.8533 136.029 36.92C134.936 35.96 134.082 34.7867 133.469 33.4C132.882 32.0133 132.589 30.4133 132.589 28.6C132.589 26.8133 132.882 25.2267 133.469 23.84C134.082 22.4267 134.922 21.2533 135.989 20.32C137.056 19.36 138.336 18.64 139.829 18.16C141.322 17.6533 142.976 17.4 144.789 17.4ZM158.198 18.2H163.798V30.8C163.798 32.72 164.278 34.1067 165.238 34.96C166.198 35.7867 167.585 36.2 169.398 36.2H174.598V18.2H180.198V39H169.398C165.585 39 162.758 38.32 160.918 36.96C159.105 35.5733 158.198 33.52 158.198 30.8V18.2ZM190.616 22.6C190.616 23.2133 190.882 23.7733 191.416 24.28C191.976 24.7867 192.909 25.2267 194.216 25.6L200.416 27.4C202.336 27.96 203.816 28.72 204.856 29.68C205.896 30.64 206.416 31.88 206.416 33.4C206.416 34.36 206.216 35.24 205.816 36.04C205.416 36.8133 204.762 37.48 203.856 38.04C202.949 38.6 201.776 39.0267 200.336 39.32C198.896 39.64 197.122 39.8 195.016 39.8C193.922 39.8 192.842 39.72 191.776 39.56C190.736 39.4 189.736 39.1867 188.776 38.92C187.842 38.6267 186.989 38.3067 186.216 37.96C185.442 37.5867 184.776 37.2 184.216 36.8L185.816 34.4C186.936 35.0933 188.242 35.7067 189.736 36.24C191.256 36.7467 193.016 37 195.016 37C197.016 37 198.416 36.7333 199.216 36.2C200.016 35.6667 200.416 35 200.416 34.2C200.416 33.5867 200.136 33.04 199.576 32.56C199.016 32.0533 198.029 31.6 196.616 31.2L190.416 29.4C188.709 28.8933 187.309 28.1733 186.216 27.24C185.149 26.28 184.616 25 184.616 23.4C184.616 22.5467 184.802 21.76 185.176 21.04C185.576 20.2933 186.189 19.6533 187.016 19.12C187.842 18.5867 188.896 18.1733 190.176 17.88C191.456 17.56 193.002 17.4 194.816 17.4C197.029 17.4 199.029 17.7067 200.816 18.32C202.629 18.9067 204.096 19.6 205.216 20.4L203.616 22.8C202.522 22.1067 201.282 21.5067 199.896 21C198.509 20.4667 196.816 20.2 194.816 20.2C193.402 20.2 192.349 20.4267 191.656 20.88C190.962 21.3333 190.616 21.9067 190.616 22.6ZM211.444 21H207.644V18.2H211.444V11.8H217.044V18.2H223.244V21H217.044V31.4C217.044 32.4133 217.15 33.28 217.364 34C217.604 34.6933 217.91 35.2667 218.284 35.72C218.684 36.1467 219.137 36.4667 219.644 36.68C220.15 36.8933 220.684 37 221.244 37C222.044 37 222.817 36.88 223.564 36.64C224.31 36.3733 224.937 36.0933 225.444 35.8L226.644 38.4C225.844 38.8 224.924 39.1333 223.884 39.4C222.87 39.6667 221.857 39.8 220.844 39.8C217.83 39.8 215.51 39.0533 213.884 37.56C212.257 36.0667 211.444 34.0133 211.444 31.4V21Z" fill="white" fill-opacity="0.6"/>
<rect x="7.6604" y="17.1133" width="30.6415" height="21.8868" rx="3.28302" fill="white" fill-opacity="0.6"/>
<path d="M30.6415 16.0189H11.6432C10.3148 16.0189 10.1341 14.0969 11.4392 13.8494L30.4376 10.2462C31.1117 10.1184 31.7358 10.6353 31.7358 11.3214V14.9245C31.7358 15.5289 31.2459 16.0189 30.6415 16.0189Z" fill="white" fill-opacity="0.6"/>
<circle cx="34.4717" cy="28.6024" r="1.64151" fill="white" fill-opacity="0.6"/>
</svg>
