<svg width="199" height="47" viewBox="0 0 199 47" fill="none" xmlns="http://www.w3.org/2000/svg">
<path d="M7.0331 20.3242L4.24741 22.788C3.87327 23.1179 3.62502 23.5673 3.54491 24.0596C3.4648 24.5519 3.55779 25.0568 3.80804 25.4883L6.32981 29.9124C6.57692 30.3403 6.96434 30.6695 7.42643 30.8444C7.88852 31.0193 8.39686 31.0291 8.86532 30.872L12.3696 29.6775L7.0331 20.3242Z" stroke="white" stroke-opacity="0.6" stroke-width="2.28836" stroke-linecap="round" stroke-linejoin="round"/>
<path d="M12.6914 10.8203C11.9951 12.9596 11.1225 15.0374 10.0827 17.0324C9.30372 18.3282 8.26486 19.4486 7.03156 20.3231L12.3695 29.6474C13.7501 29.011 15.2464 28.6641 16.7662 28.6283C18.9997 28.729 21.2209 29.0097 23.4071 29.4704" stroke="white" stroke-opacity="0.6" stroke-width="2.28836" stroke-linecap="round" stroke-linejoin="round"/>
<path d="M3.99876 25.8101L3.07426 26.3563C2.82799 26.4971 2.61234 26.6857 2.43995 26.911C2.26757 27.1363 2.14194 27.3938 2.07043 27.6683C1.99841 27.9429 1.98141 28.229 2.02042 28.5102C2.05943 28.7914 2.15368 29.0621 2.29774 29.3067C2.43717 29.553 2.62414 29.7691 2.8478 29.9425C3.07146 30.1158 3.32734 30.243 3.60058 30.3167C3.87355 30.3897 4.15842 30.4073 4.43829 30.3682C4.71816 30.3292 4.98735 30.2344 5.2299 30.0894L6.0949 29.5432M13.4238 29.2335L16.0187 33.7645C16.2962 34.2609 16.3703 34.8456 16.2255 35.3956C16.0807 35.9456 15.7282 36.418 15.2422 36.7134C14.9976 36.8545 14.7275 36.9459 14.4475 36.9822C14.1675 37.0185 13.883 36.9991 13.6105 36.9251C13.338 36.8511 13.0828 36.7239 12.8596 36.5509C12.6365 36.3779 12.4497 36.1625 12.3101 35.917L9.37793 30.7087M28.5239 14.3317L24.713 16.5438M31.7489 21.9306H27.3507M23.3201 7.25L21.1203 11.0868M12.6838 10.8214L14.5374 9.74431C14.7808 9.60225 15.0499 9.50992 15.3292 9.4727C15.6085 9.43547 15.8925 9.45409 16.1645 9.52746C16.4366 9.60083 16.6914 9.7275 16.9141 9.90012C17.1368 10.0727 17.323 10.2879 17.4619 10.533L26.0158 25.444C26.2937 25.9386 26.3665 26.5226 26.2184 27.0703C26.0703 27.618 25.7133 28.0858 25.2241 28.3731L23.3705 29.4517L12.6838 10.8214Z" stroke="white" stroke-opacity="0.6" stroke-width="2.28836" stroke-linecap="round" stroke-linejoin="round"/>
<path d="M40.6662 28.888V27.592C40.6662 27.328 40.7982 27.196 41.0622 27.196H42.1062C42.3702 27.196 42.5022 27.328 42.5022 27.592V28.78C42.5022 31.18 43.6662 32.38 45.9942 32.38H49.7382C52.0662 32.38 53.2302 31.168 53.2302 28.744V27.232C53.2302 26.176 52.7982 25.348 51.9342 24.748C51.0702 24.148 50.0262 23.716 48.8022 23.452C47.5782 23.188 46.3422 22.912 45.0942 22.624C43.8702 22.336 42.8262 21.808 41.9622 21.04C41.0982 20.272 40.6662 19.24 40.6662 17.944V15.964C40.6662 14.38 41.1222 13.132 42.0342 12.22C42.9462 11.308 44.1822 10.852 45.7422 10.852H49.9182C51.4782 10.852 52.7142 11.308 53.6262 12.22C54.5382 13.132 54.9942 14.38 54.9942 15.964V16.972C54.9942 17.236 54.8622 17.368 54.5982 17.368H53.5542C53.2902 17.368 53.1582 17.236 53.1582 16.972V16.072C53.1582 13.672 51.9942 12.472 49.6662 12.472H45.9582C43.6542 12.472 42.5022 13.696 42.5022 16.144V17.944C42.5022 19.6 43.9782 20.716 46.9302 21.292C48.1542 21.532 49.3782 21.808 50.6022 22.12C51.8502 22.432 52.9062 22.996 53.7702 23.812C54.6342 24.628 55.0662 25.732 55.0662 27.124V28.888C55.0662 30.472 54.6102 31.72 53.6982 32.632C52.7862 33.544 51.5502 34 49.9902 34H45.7422C44.1822 34 42.9462 33.544 42.0342 32.632C41.1222 31.72 40.6662 30.472 40.6662 28.888ZM61.457 17.26H59.261C58.997 17.26 58.865 17.14 58.865 16.9V16.036C58.865 15.772 58.997 15.64 59.261 15.64H61.457C61.673 15.64 61.781 15.532 61.781 15.316V12.4C61.781 12.112 61.913 11.968 62.177 11.968H63.221C63.485 11.968 63.617 12.112 63.617 12.4V15.316C63.617 15.532 63.725 15.64 63.941 15.64H68.225C68.489 15.64 68.621 15.772 68.621 16.036V16.9C68.621 17.14 68.489 17.26 68.225 17.26H63.941C63.725 17.26 63.617 17.368 63.617 17.584V28.924C63.617 30.028 63.929 30.88 64.553 31.48C65.177 32.08 66.053 32.38 67.181 32.38H68.585C68.849 32.38 68.981 32.512 68.981 32.776V33.604C68.981 33.868 68.849 34 68.585 34H67.037C65.453 34 64.181 33.556 63.221 32.668C62.261 31.78 61.781 30.556 61.781 28.996V17.584C61.781 17.368 61.673 17.26 61.457 17.26ZM85.3495 34H77.8255C76.2655 34 75.0295 33.544 74.1175 32.632C73.2295 31.72 72.7855 30.472 72.7855 28.888V20.752C72.7855 19.168 73.2295 17.92 74.1175 17.008C75.0295 16.096 76.2655 15.64 77.8255 15.64H80.9215C82.4815 15.64 83.7175 16.096 84.6295 17.008C85.5415 17.92 85.9975 19.168 85.9975 20.752V25.324C85.9975 25.612 85.8535 25.756 85.5655 25.756H74.9095C74.6935 25.756 74.5855 25.864 74.5855 26.08V28.852C74.5855 29.98 74.8735 30.856 75.4495 31.48C76.0255 32.08 76.8655 32.38 77.9695 32.38H85.3495C85.6135 32.38 85.7455 32.512 85.7455 32.776V33.604C85.7455 33.868 85.6135 34 85.3495 34ZM74.9095 24.316H83.8735C84.0895 24.316 84.1975 24.208 84.1975 23.992V20.788C84.1975 19.66 83.9095 18.796 83.3335 18.196C82.7575 17.572 81.9175 17.26 80.8135 17.26H77.9695C76.8655 17.26 76.0255 17.572 75.4495 18.196C74.8735 18.796 74.5855 19.66 74.5855 20.788V23.992C74.5855 24.208 74.6935 24.316 74.9095 24.316ZM97.8482 34H95.5442C93.9842 34 92.7482 33.544 91.8362 32.632C90.9482 31.72 90.5042 30.472 90.5042 28.888V20.752C90.5042 19.168 90.9482 17.92 91.8362 17.008C92.7482 16.096 93.9842 15.64 95.5442 15.64H103.176C103.416 15.64 103.536 15.784 103.536 16.072V33.568C103.536 33.856 103.416 34 103.176 34H102.132C101.868 34 101.736 33.856 101.736 33.568V32.128H101.592C100.968 33.376 99.7202 34 97.8482 34ZM101.736 28.852V17.584C101.736 17.368 101.616 17.26 101.376 17.26H95.6882C94.5842 17.26 93.7442 17.572 93.1682 18.196C92.5922 18.82 92.3042 19.696 92.3042 20.824V28.816C92.3042 29.944 92.5922 30.82 93.1682 31.444C93.7442 32.068 94.5842 32.38 95.6882 32.38H98.0282C99.1802 32.38 100.08 32.08 100.728 31.48C101.4 30.856 101.736 29.98 101.736 28.852ZM115.955 34H113.543C112.007 34 110.795 33.544 109.907 32.632C109.019 31.72 108.575 30.472 108.575 28.888V20.752C108.575 19.168 109.019 17.92 109.907 17.008C110.795 16.096 112.007 15.64 113.543 15.64H115.955C117.803 15.64 119.063 16.264 119.735 17.512H119.879V9.124C119.879 8.836 119.999 8.692 120.239 8.692H121.283C121.547 8.692 121.679 8.836 121.679 9.124V33.568C121.679 33.856 121.547 34 121.283 34H120.239C119.999 34 119.879 33.856 119.879 33.568V32.128H119.735C119.063 33.376 117.803 34 115.955 34ZM119.879 28.852V20.788C119.879 19.66 119.543 18.796 118.871 18.196C118.223 17.572 117.323 17.26 116.171 17.26H113.759C112.655 17.26 111.815 17.572 111.239 18.196C110.663 18.82 110.375 19.696 110.375 20.824V28.816C110.375 29.944 110.663 30.82 111.239 31.444C111.815 32.068 112.655 32.38 113.759 32.38H116.171C117.323 32.38 118.223 32.08 118.871 31.48C119.543 30.856 119.879 29.98 119.879 28.852ZM127.255 12.616V9.16C127.255 8.896 127.375 8.764 127.615 8.764H128.695C128.935 8.764 129.055 8.896 129.055 9.16V12.616C129.055 12.904 128.935 13.048 128.695 13.048H127.615C127.375 13.048 127.255 12.904 127.255 12.616ZM127.255 33.568V16.072C127.255 15.784 127.375 15.64 127.615 15.64H128.659C128.923 15.64 129.055 15.784 129.055 16.072V33.568C129.055 33.856 128.935 34 128.695 34H127.615C127.375 34 127.255 33.856 127.255 33.568ZM144.894 32.776V33.604C144.894 33.868 144.762 34 144.498 34H139.314C137.754 34 136.518 33.544 135.606 32.632C134.718 31.72 134.274 30.472 134.274 28.888V20.752C134.274 19.168 134.718 17.92 135.606 17.008C136.518 16.096 137.754 15.64 139.314 15.64H144.498C144.762 15.64 144.894 15.772 144.894 16.036V16.9C144.894 17.14 144.762 17.26 144.498 17.26H139.458C138.354 17.26 137.514 17.572 136.938 18.196C136.362 18.82 136.074 19.696 136.074 20.824V28.816C136.074 29.944 136.362 30.82 136.938 31.444C137.514 32.068 138.354 32.38 139.458 32.38H144.498C144.762 32.38 144.894 32.512 144.894 32.776ZM155.786 34H153.482C151.922 34 150.686 33.544 149.774 32.632C148.886 31.72 148.442 30.472 148.442 28.888V20.752C148.442 19.168 148.886 17.92 149.774 17.008C150.686 16.096 151.922 15.64 153.482 15.64H161.114C161.354 15.64 161.474 15.784 161.474 16.072V33.568C161.474 33.856 161.354 34 161.114 34H160.07C159.806 34 159.674 33.856 159.674 33.568V32.128H159.53C158.906 33.376 157.658 34 155.786 34ZM159.674 28.852V17.584C159.674 17.368 159.554 17.26 159.314 17.26H153.626C152.522 17.26 151.682 17.572 151.106 18.196C150.53 18.82 150.242 19.696 150.242 20.824V28.816C150.242 29.944 150.53 30.82 151.106 31.444C151.682 32.068 152.522 32.38 153.626 32.38H155.966C157.118 32.38 158.018 32.08 158.666 31.48C159.338 30.856 159.674 29.98 159.674 28.852ZM172.812 34H166.548C166.284 34 166.152 33.868 166.152 33.604V32.776C166.152 32.536 166.284 32.416 166.548 32.416H172.632C174.792 32.416 175.872 31.576 175.872 29.896V29.032C175.872 27.472 175.2 26.452 173.856 25.972L169.356 24.244C168.132 23.764 167.256 23.2 166.728 22.552C166.224 21.904 165.972 21.004 165.972 19.852C165.972 17.044 167.52 15.64 170.616 15.64H176.448C176.712 15.64 176.844 15.772 176.844 16.036V16.864C176.844 17.104 176.712 17.224 176.448 17.224H170.796C169.812 17.224 169.068 17.44 168.564 17.872C168.084 18.304 167.844 18.808 167.844 19.384V20.212C167.844 20.884 168.024 21.412 168.384 21.796C168.768 22.18 169.344 22.504 170.112 22.768L174.612 24.568C175.86 24.976 176.688 25.588 177.096 26.404C177.528 27.196 177.744 28.312 177.744 29.752C177.744 31.192 177.336 32.26 176.52 32.956C175.728 33.652 174.492 34 172.812 34ZM183.78 34H182.736C182.496 34 182.376 33.856 182.376 33.568V9.124C182.376 8.836 182.496 8.692 182.736 8.692H183.78C184.044 8.692 184.176 8.836 184.176 9.124V17.512H184.32C184.992 16.264 186.24 15.64 188.064 15.64H190.44C191.976 15.64 193.188 16.096 194.076 17.008C194.964 17.92 195.408 19.168 195.408 20.752V33.568C195.408 33.856 195.288 34 195.048 34H194.004C193.74 34 193.608 33.856 193.608 33.568V20.824C193.608 19.696 193.32 18.82 192.744 18.196C192.168 17.572 191.328 17.26 190.224 17.26H187.884C186.732 17.26 185.82 17.572 185.148 18.196C184.5 18.796 184.176 19.66 184.176 20.788V33.568C184.176 33.856 184.044 34 183.78 34Z" fill="white" fill-opacity="0.6"/>
</svg>
