<svg width="340" height="84" viewBox="0 0 340 84" fill="none" xmlns="http://www.w3.org/2000/svg">
<path d="M317.447 61.3043C306.123 65.4585 311.638 77.499 315.811 83C307.773 83 304.003 72.4725 304.145 72.6859C300.02 59.2416 315.384 52.9819 315.384 52.9108C317.205 52.1141 317.993 50.2077 318.159 49.3541V39.8222C317.988 38.2288 318.704 37.4985 319.083 37.3325C319.866 36.1233 327.619 23.0347 327.762 22.8213C330.465 8.73688 316.096 10.8709 316.167 10.7997C308.982 3.40187 299.593 3.75753 299.664 3.75753C297.174 3.75753 298.099 2.61929 298.028 2.61929C302.509 0.271884 314.389 1.12549 314.175 1.26775C332.67 4.46876 335.871 16.0635 335.729 16.0635C336.753 18.1122 336.487 24.9789 336.227 28.1562C334.633 30.6601 335.752 34.5108 336.511 36.1232C337.341 37.7355 339.001 40.946 339.001 40.8891C339.741 41.8565 339.309 42.6674 339.001 42.952L334.377 45.086V47.22C334.59 48.0024 334.093 48.8561 334.164 48.9272C332.172 48.9983 332.812 50.2787 332.812 50.2076C333.879 51.2035 332.954 52.1993 332.812 52.3416C329.753 52.9107 330.109 57.6766 330.038 57.5343C329.753 61.3044 327.619 61.7311 327.691 61.66C323.067 60.0239 317.305 61.3043 317.447 61.3043Z" fill="#FB7957" stroke="black" stroke-width="0.284534" stroke-linejoin="round"/>
<path d="M270.428 24.7458C269.361 22.8726 268.522 19.2116 273.7 19.553C273.643 19.553 276.901 16.9447 278.537 15.6406C278.632 14.2416 279.363 11.2445 281.525 10.4478C284.228 9.45197 286.931 13.2932 286.22 14.787C286.277 14.8439 287.761 16.2809 288.496 16.9923C290.18 16.0675 294.016 14.9863 295.894 18.0593C295.951 18.1162 298.004 17.8459 299.024 17.7036C299.877 14.9057 302.566 10.7183 306.493 16.3521C306.635 16.3521 307.062 18.4149 305.355 20.2644C305.241 20.2644 305.924 22.6355 306.279 23.8211C306.991 24.0345 308.385 24.76 308.271 25.9551C308.328 25.9551 311.093 26.1922 312.468 26.3108C313.251 25.3623 315.328 23.6219 317.376 24.2479C317.319 24.191 318.728 22.7067 319.439 21.9716C318.917 19.4819 319.126 15.0005 324.134 16.9923C324.063 16.85 327.548 22.2561 321.146 22.7541L319.155 25.6705C319.747 28.4448 319.439 33.3103 313.464 30.5788C313.393 30.5076 312.468 29.5829 312.468 28.587C312.468 28.6439 308.058 28.2314 305.853 28.018C305.07 27.686 303.662 26.6664 304.288 25.2437C304.174 25.3576 303.576 22.3984 303.292 20.9046C302.58 20.9046 300.944 20.6201 300.091 19.4819C300.091 19.5388 297.815 20.0273 296.676 20.2644C296.558 22.8015 294.756 27.2782 288.496 24.8881L283.303 29.4406C283.351 30.0097 283.303 31.3612 282.734 32.2148C282.848 32.2717 284.157 33.3767 284.797 33.922C285.603 33.5189 287.401 32.9546 288.14 33.922L293.618 29.4406C293.997 27.4015 295.709 23.9349 299.522 26.3819C299.593 26.453 301.371 29.9386 299.024 31.0767V35.9138C299.848 36.1963 301.462 36.9275 301.373 37.6063C301.509 37.4621 304.044 36.4337 305.355 35.9138C306.066 34.3963 307.987 32.1295 309.978 35.2024C309.978 35.3447 310.334 36.6251 309.694 37.3364C309.58 37.3364 310.121 38.0004 310.405 38.3323C312.421 38.4272 316.053 39.57 314.46 43.3828C314.152 43.9281 312.909 45.1184 310.405 45.5168C310.405 45.6306 309.314 46.4652 308.769 46.8683C310.121 50.1879 310.732 56.4287 302.367 54.8353C302.438 54.8353 296.321 48.7178 303.932 45.5168C304.572 45.3982 306.237 45.2323 307.773 45.5168C307.716 45.5168 308.698 44.5209 309.196 44.023C308.911 43.1931 308.428 41.0638 308.769 39.1859C308.769 39.2997 307.631 38.0004 307.062 37.3364L302.367 38.9014C301.537 40.3715 299.251 42.8422 296.748 40.9642C296.605 40.7508 294.614 39.5416 296.392 36.4117C296.392 36.3548 296.155 32.8313 296.036 31.0767C295.894 30.721 295.481 30.2942 294.969 31.4324C294.855 31.4893 291.081 33.9695 289.207 35.2024C288.615 36.554 286.96 38.7876 285.082 36.9096C285.082 36.7389 283.042 35.4633 282.023 34.8468C279.676 35.9612 274.853 36.8954 274.341 31.7169C274.412 31.6458 274.554 26.0262 281.525 27.7334C281.411 27.6765 284.892 25.0541 286.647 23.7499C286.409 22.3984 286.078 19.3681 286.647 18.0593L285.082 16.6366C284.347 16.9686 282.322 17.5044 280.102 16.9923C280.045 16.9923 276.806 19.7902 275.194 21.1891C275.479 22.8252 274.924 25.8269 270.428 24.7458Z" fill="#FB7957"/>
<path d="M270.428 24.7458C269.361 22.8726 268.522 19.2116 273.7 19.553C273.643 19.553 276.901 16.9447 278.537 15.6406C278.632 14.2416 279.363 11.2445 281.525 10.4478C284.228 9.45197 286.931 13.2932 286.22 14.787C286.277 14.8439 287.761 16.2809 288.496 16.9923C290.18 16.0675 294.016 14.9863 295.894 18.0593C295.951 18.1162 298.004 17.8459 299.024 17.7036C299.877 14.9057 302.566 10.7183 306.493 16.3521C306.635 16.3521 307.062 18.4149 305.355 20.2644C305.241 20.2644 305.924 22.6355 306.279 23.8211C306.991 24.0345 308.385 24.76 308.271 25.9551C308.328 25.9551 311.093 26.1922 312.468 26.3108C313.251 25.3623 315.328 23.6219 317.376 24.2479C317.319 24.191 318.728 22.7067 319.439 21.9716C318.917 19.4819 319.126 15.0005 324.134 16.9923C324.063 16.85 327.548 22.2561 321.146 22.7541L319.155 25.6705C319.747 28.4448 319.439 33.3103 313.464 30.5788C313.393 30.5076 312.468 29.5829 312.468 28.587C312.468 28.6439 308.058 28.2314 305.853 28.018C305.07 27.686 303.662 26.6664 304.288 25.2437C304.174 25.3576 303.576 22.3984 303.292 20.9046C302.58 20.9046 300.944 20.6201 300.091 19.4819C300.091 19.5388 297.815 20.0273 296.676 20.2644C296.558 22.8015 294.756 27.2782 288.496 24.8881L283.303 29.4406C283.351 30.0097 283.303 31.3612 282.734 32.2148C282.848 32.2717 284.157 33.3767 284.797 33.922C285.603 33.5189 287.401 32.9546 288.14 33.922L293.618 29.4406C293.997 27.4015 295.709 23.9349 299.522 26.3819C299.593 26.453 301.371 29.9386 299.024 31.0767C299.024 31.0198 299.024 34.2777 299.024 35.9138C299.854 36.1983 301.485 36.9381 301.371 37.621C301.257 37.5641 303.979 36.4591 305.355 35.9138C306.066 34.3963 307.987 32.1295 309.978 35.2024C309.978 35.3447 310.334 36.6251 309.694 37.3364C309.58 37.3364 310.121 38.0004 310.405 38.3323C312.421 38.4272 316.053 39.57 314.46 43.3828C314.152 43.9281 312.909 45.1184 310.405 45.5168C310.405 45.6306 309.314 46.4652 308.769 46.8683C310.121 50.1879 310.732 56.4287 302.367 54.8353C302.438 54.8353 296.321 48.7178 303.932 45.5168C304.572 45.3982 306.237 45.2323 307.773 45.5168C307.716 45.5168 308.698 44.5209 309.196 44.023C308.911 43.1931 308.428 41.0638 308.769 39.1859C308.769 39.2997 307.631 38.0004 307.062 37.3364L302.367 38.9014C301.537 40.3715 299.251 42.8422 296.748 40.9642C296.605 40.7508 294.614 39.5416 296.392 36.4117C296.392 36.3548 296.155 32.8313 296.036 31.0767C295.894 30.721 295.481 30.2942 294.969 31.4324C294.855 31.4893 291.081 33.9695 289.207 35.2024C288.615 36.554 286.96 38.7876 285.082 36.9096C285.082 36.7389 283.042 35.4633 282.023 34.8468C279.676 35.9612 274.853 36.8954 274.341 31.7169C274.412 31.6458 274.554 26.0262 281.525 27.7334C281.411 27.6765 284.892 25.0541 286.647 23.7499C286.409 22.3984 286.078 19.3681 286.647 18.0593L285.082 16.6366C284.347 16.9686 282.322 17.5044 280.102 16.9923C280.045 16.9923 276.806 19.7902 275.194 21.1891C275.479 22.8252 274.924 25.8269 270.428 24.7458Z" stroke="black" stroke-width="0.284534" stroke-linejoin="round"/>
<circle cx="292.906" cy="11.2285" r="3.41441" fill="#FB7957" stroke="black" stroke-width="0.284534"/>
<circle cx="287.927" cy="29.7216" r="2.134" fill="#FB7957" stroke="black" stroke-width="0.284534"/>
<circle cx="282.663" cy="21.6087" r="2.84534" fill="#FB7957" stroke="black" stroke-width="0.284534"/>
<circle cx="291.484" cy="42.8069" r="2.41854" fill="#FB7957" stroke="black" stroke-width="0.284534"/>
<circle cx="303.577" cy="31.9983" r="2.41854" fill="#FB7957" stroke="black" stroke-width="0.284534"/>
<circle cx="305.497" cy="41.8871" r="1.9206" fill="#FB7957" stroke="black" stroke-width="0.284534"/>
<circle cx="312.895" cy="20.4044" r="2.06287" fill="#FB7957" stroke="black" stroke-width="0.284534"/>
<circle cx="309.765" cy="14.8554" r="1.20927" fill="#FB7957" stroke="black" stroke-width="0.284534"/>
<circle cx="310.192" cy="31.3593" r="1.20927" fill="#FB7957" stroke="black" stroke-width="0.284534"/>
<circle cx="300.375" cy="23.2461" r="1.20927" fill="#FB7957" stroke="black" stroke-width="0.284534"/>
<circle cx="293.12" cy="35.4843" r="1.20927" fill="#FB7957" stroke="black" stroke-width="0.284534"/>
<circle cx="271.78" cy="29.6501" r="1.35154" fill="#FB7957" stroke="black" stroke-width="0.284534"/>
<path d="M28.7667 58.8391C29.532 58.9818 30.1806 59.3709 30.7124 60.0065C31.2443 60.6422 31.5102 61.3815 31.5102 62.2247C31.5102 62.9122 31.3351 63.5349 30.9848 64.0926C30.6476 64.6375 30.1482 65.072 29.4866 65.3963C28.825 65.7076 28.0338 65.8633 27.1128 65.8633H22.404V52.2624H26.9766C28.3516 52.2624 29.3958 52.5802 30.1092 53.2158C30.8357 53.8514 31.1989 54.6751 31.1989 55.6869C31.1989 56.5301 30.9719 57.2176 30.5179 57.7495C30.0638 58.2683 29.4801 58.6315 28.7667 58.8391ZM23.7661 58.2748H26.9376C27.8586 58.2748 28.5656 58.0608 29.0585 57.6327C29.5644 57.1917 29.8174 56.5885 29.8174 55.8231C29.8174 55.0708 29.5644 54.4806 29.0585 54.0525C28.5656 53.6244 27.8392 53.4104 26.8793 53.4104H23.7661V58.2748ZM27.0155 64.7153C28.0013 64.7153 28.7667 64.4818 29.3115 64.0148C29.8693 63.5478 30.1482 62.9057 30.1482 62.0885C30.1482 61.2713 29.8563 60.6227 29.2726 60.1427C28.7018 59.6498 27.93 59.4033 26.9571 59.4033H23.7661V64.7153H27.0155ZM43.2175 55.2394V65.8633H41.8554V63.9953C41.5441 64.6569 41.0641 65.1628 40.4156 65.513C39.767 65.8633 39.0405 66.0384 38.2363 66.0384C36.9651 66.0384 35.9273 65.6492 35.1231 64.8709C34.3188 64.0797 33.9167 62.9382 33.9167 61.4464V55.2394H35.2593V61.2907C35.2593 62.4452 35.5447 63.3273 36.1154 63.937C36.6991 64.5466 37.4904 64.8515 38.4892 64.8515C39.514 64.8515 40.3312 64.5272 40.9409 63.8786C41.5506 63.23 41.8554 62.2766 41.8554 61.0183V55.2394H43.2175ZM47.008 53.2353C46.7356 53.2353 46.5021 53.138 46.3076 52.9434C46.113 52.7488 46.0157 52.5089 46.0157 52.2235C46.0157 51.9381 46.113 51.7046 46.3076 51.523C46.5021 51.3284 46.7356 51.2311 47.008 51.2311C47.2804 51.2311 47.5139 51.3284 47.7085 51.523C47.9031 51.7046 48.0004 51.9381 48.0004 52.2235C48.0004 52.5089 47.9031 52.7488 47.7085 52.9434C47.5139 53.138 47.2804 53.2353 47.008 53.2353ZM47.6891 55.2394V65.8633H46.327V55.2394H47.6891ZM52.1354 51.4646V65.8633H50.7734V51.4646H52.1354ZM54.5971 60.5319C54.5971 59.4423 54.8176 58.4888 55.2587 57.6716C55.6997 56.8414 56.3029 56.2058 57.0682 55.7648C57.8465 55.3108 58.7221 55.0838 59.695 55.0838C60.629 55.0838 61.4721 55.3108 62.2245 55.7648C62.9769 56.2188 63.5282 56.809 63.8784 57.5354V51.4646H65.2404V65.8633H63.8784V63.4895C63.5541 64.2288 63.0223 64.8385 62.2829 65.3185C61.5435 65.7855 60.6744 66.0189 59.6756 66.0189C58.7027 66.0189 57.8271 65.7919 57.0488 65.3379C56.2834 64.8839 55.6803 64.2418 55.2392 63.4116C54.8112 62.5814 54.5971 61.6215 54.5971 60.5319ZM63.8784 60.5513C63.8784 59.6952 63.7033 58.9429 63.3531 58.2943C63.0028 57.6457 62.5229 57.1463 61.9132 56.796C61.3165 56.4458 60.6549 56.2707 59.9285 56.2707C59.1761 56.2707 58.5016 56.4393 57.9049 56.7766C57.3082 57.1138 56.8347 57.6068 56.4845 58.2553C56.1472 58.891 55.9786 59.6498 55.9786 60.5319C55.9786 61.401 56.1472 62.1663 56.4845 62.8279C56.8347 63.4765 57.3082 63.9759 57.9049 64.3261C58.5016 64.6634 59.1761 64.832 59.9285 64.832C60.6549 64.832 61.3165 64.6569 61.9132 64.3067C62.5229 63.9564 63.0028 63.457 63.3531 62.8084C63.7033 62.1598 63.8784 61.4075 63.8784 60.5513ZM69.0309 53.2353C68.7585 53.2353 68.525 53.138 68.3304 52.9434C68.1358 52.7488 68.0385 52.5089 68.0385 52.2235C68.0385 51.9381 68.1358 51.7046 68.3304 51.523C68.525 51.3284 68.7585 51.2311 69.0309 51.2311C69.3033 51.2311 69.5368 51.3284 69.7314 51.523C69.9259 51.7046 70.0232 51.9381 70.0232 52.2235C70.0232 52.5089 69.9259 52.7488 69.7314 52.9434C69.5368 53.138 69.3033 53.2353 69.0309 53.2353ZM69.7119 55.2394V65.8633H68.3499V55.2394H69.7119ZM77.7774 55.0448C79.0486 55.0448 80.0864 55.4405 80.8906 56.2318C81.6949 57.0101 82.097 58.1451 82.097 59.6368V65.8633H80.7544V59.7925C80.7544 58.638 80.4625 57.7559 79.8788 57.1463C79.3081 56.5366 78.5233 56.2318 77.5244 56.2318C76.4997 56.2318 75.6824 56.556 75.0728 57.2046C74.4631 57.8532 74.1583 58.8066 74.1583 60.0649V65.8633H72.7962V55.2394H74.1583V57.049C74.4955 56.4004 74.982 55.9075 75.6176 55.5702C76.2532 55.22 76.9731 55.0448 77.7774 55.0448ZM89.5651 55.0838C90.5639 55.0838 91.433 55.3172 92.1724 55.7842C92.9118 56.2512 93.4436 56.8414 93.7679 57.5549V55.2394H95.1299V66.1357C95.1299 67.1086 94.9159 67.9712 94.4878 68.7236C94.0727 69.4759 93.489 70.0532 92.7367 70.4553C91.9843 70.8704 91.1282 71.0779 90.1682 71.0779C88.8062 71.0779 87.6712 70.7536 86.7632 70.105C85.8681 69.4565 85.3103 68.5744 85.0898 67.4588H86.4324C86.6659 68.1982 87.1069 68.7884 87.7555 69.2295C88.4171 69.6705 89.2213 69.891 90.1682 69.891C90.8558 69.891 91.4719 69.7418 92.0167 69.4435C92.5615 69.1581 92.9896 68.73 93.3009 68.1593C93.6122 67.5885 93.7679 66.914 93.7679 66.1357V63.5089C93.4306 64.2353 92.8923 64.8385 92.1529 65.3185C91.4265 65.7855 90.5639 66.0189 89.5651 66.0189C88.5922 66.0189 87.7166 65.7919 86.9383 65.3379C86.1729 64.8839 85.5698 64.2418 85.1287 63.4116C84.7007 62.5814 84.4866 61.6215 84.4866 60.5319C84.4866 59.4423 84.7007 58.4888 85.1287 57.6716C85.5698 56.8414 86.1729 56.2058 86.9383 55.7648C87.7166 55.3108 88.5922 55.0838 89.5651 55.0838ZM93.7679 60.5513C93.7679 59.6952 93.5928 58.9429 93.2426 58.2943C92.8923 57.6457 92.4124 57.1463 91.8027 56.796C91.206 56.4458 90.5444 56.2707 89.818 56.2707C89.0656 56.2707 88.3911 56.4393 87.7944 56.7766C87.1977 57.1138 86.7242 57.6068 86.374 58.2553C86.0367 58.891 85.8681 59.6498 85.8681 60.5319C85.8681 61.401 86.0367 62.1663 86.374 62.8279C86.7242 63.4765 87.1977 63.9759 87.7944 64.3261C88.3911 64.6634 89.0656 64.832 89.818 64.832C90.5444 64.832 91.206 64.6569 91.8027 64.3067C92.4124 63.9564 92.8923 63.457 93.2426 62.8084C93.5928 62.1598 93.7679 61.4075 93.7679 60.5513ZM107.607 52.2624C109.111 52.2624 110.402 52.5348 111.479 53.0796C112.555 53.6244 113.379 54.4092 113.95 55.434C114.52 56.4588 114.806 57.6781 114.806 59.092C114.806 60.493 114.52 61.7058 113.95 62.7306C113.379 63.7424 112.555 64.5207 111.479 65.0655C110.402 65.5974 109.111 65.8633 107.607 65.8633H103.579V52.2624H107.607ZM107.607 64.7347C109.5 64.7347 110.94 64.2418 111.926 63.256C112.925 62.2571 113.424 60.8692 113.424 59.092C113.424 57.3019 112.925 55.9075 111.926 54.9086C110.94 53.8968 109.5 53.3909 107.607 53.3909H104.941V64.7347H107.607ZM117.998 53.2353C117.726 53.2353 117.492 53.138 117.297 52.9434C117.103 52.7488 117.006 52.5089 117.006 52.2235C117.006 51.9381 117.103 51.7046 117.297 51.523C117.492 51.3284 117.726 51.2311 117.998 51.2311C118.27 51.2311 118.504 51.3284 118.698 51.523C118.893 51.7046 118.99 51.9381 118.99 52.2235C118.99 52.5089 118.893 52.7488 118.698 52.9434C118.504 53.138 118.27 53.2353 117.998 53.2353ZM118.679 55.2394V65.8633H117.317V55.2394H118.679ZM126.219 55.0838C127.218 55.0838 128.087 55.3172 128.826 55.7842C129.566 56.2512 130.098 56.8414 130.422 57.5549V55.2394H131.784V66.1357C131.784 67.1086 131.57 67.9712 131.142 68.7236C130.727 69.4759 130.143 70.0532 129.391 70.4553C128.638 70.8704 127.782 71.0779 126.822 71.0779C125.46 71.0779 124.325 70.7536 123.417 70.105C122.522 69.4565 121.964 68.5744 121.744 67.4588H123.086C123.32 68.1982 123.761 68.7884 124.41 69.2295C125.071 69.6705 125.875 69.891 126.822 69.891C127.51 69.891 128.126 69.7418 128.671 69.4435C129.216 69.1581 129.644 68.73 129.955 68.1593C130.266 67.5885 130.422 66.914 130.422 66.1357V63.5089C130.085 64.2353 129.546 64.8385 128.807 65.3185C128.081 65.7855 127.218 66.0189 126.219 66.0189C125.246 66.0189 124.371 65.7919 123.592 65.3379C122.827 64.8839 122.224 64.2418 121.783 63.4116C121.355 62.5814 121.141 61.6215 121.141 60.5319C121.141 59.4423 121.355 58.4888 121.783 57.6716C122.224 56.8414 122.827 56.2058 123.592 55.7648C124.371 55.3108 125.246 55.0838 126.219 55.0838ZM130.422 60.5513C130.422 59.6952 130.247 58.9429 129.897 58.2943C129.546 57.6457 129.066 57.1463 128.457 56.796C127.86 56.4458 127.198 56.2707 126.472 56.2707C125.72 56.2707 125.045 56.4393 124.448 56.7766C123.852 57.1138 123.378 57.6068 123.028 58.2553C122.691 58.891 122.522 59.6498 122.522 60.5319C122.522 61.401 122.691 62.1663 123.028 62.8279C123.378 63.4765 123.852 63.9759 124.448 64.3261C125.045 64.6634 125.72 64.832 126.472 64.832C127.198 64.832 127.86 64.6569 128.457 64.3067C129.066 63.9564 129.546 63.457 129.897 62.8084C130.247 62.1598 130.422 61.4075 130.422 60.5513ZM135.574 53.2353C135.302 53.2353 135.069 53.138 134.874 52.9434C134.679 52.7488 134.582 52.5089 134.582 52.2235C134.582 51.9381 134.679 51.7046 134.874 51.523C135.069 51.3284 135.302 51.2311 135.574 51.2311C135.847 51.2311 136.08 51.3284 136.275 51.523C136.469 51.7046 136.567 51.9381 136.567 52.2235C136.567 52.5089 136.469 52.7488 136.275 52.9434C136.08 53.138 135.847 53.2353 135.574 53.2353ZM136.255 55.2394V65.8633H134.893V55.2394H136.255ZM141.11 56.3874V62.9836C141.11 63.6321 141.234 64.0797 141.48 64.3261C141.727 64.5726 142.161 64.6958 142.784 64.6958H144.029V65.8633H142.57C141.61 65.8633 140.896 65.6428 140.429 65.2017C139.962 64.7477 139.729 64.0083 139.729 62.9836V56.3874H138.25V55.2394H139.729V52.5737H141.11V55.2394H144.029V56.3874H141.11ZM145.653 60.5319C145.653 59.4423 145.867 58.4888 146.295 57.6716C146.736 56.8414 147.339 56.2058 148.104 55.7648C148.883 55.3108 149.758 55.0838 150.731 55.0838C151.743 55.0838 152.612 55.3172 153.338 55.7842C154.078 56.2512 154.61 56.8479 154.934 57.5743V55.2394H156.296V65.8633H154.934V63.5089C154.597 64.2353 154.058 64.8385 153.319 65.3185C152.593 65.7855 151.724 66.0189 150.712 66.0189C149.752 66.0189 148.883 65.7919 148.104 65.3379C147.339 64.8839 146.736 64.2418 146.295 63.4116C145.867 62.5814 145.653 61.6215 145.653 60.5319ZM154.934 60.5513C154.934 59.6952 154.759 58.9429 154.409 58.2943C154.058 57.6457 153.578 57.1463 152.969 56.796C152.372 56.4458 151.711 56.2707 150.984 56.2707C150.232 56.2707 149.557 56.4393 148.961 56.7766C148.364 57.1138 147.89 57.6068 147.54 58.2553C147.203 58.891 147.034 59.6498 147.034 60.5319C147.034 61.401 147.203 62.1663 147.54 62.8279C147.89 63.4765 148.364 63.9759 148.961 64.3261C149.557 64.6634 150.232 64.832 150.984 64.832C151.711 64.832 152.372 64.6569 152.969 64.3067C153.578 63.9564 154.058 63.457 154.409 62.8084C154.759 62.1598 154.934 61.4075 154.934 60.5513ZM160.768 51.4646V65.8633H159.405V51.4646H160.768ZM173.219 52.2624C174.724 52.2624 176.014 52.5348 177.091 53.0796C178.168 53.6244 178.991 54.4092 179.562 55.434C180.133 56.4588 180.418 57.6781 180.418 59.092C180.418 60.493 180.133 61.7058 179.562 62.7306C178.991 63.7424 178.168 64.5207 177.091 65.0655C176.014 65.5974 174.724 65.8633 173.219 65.8633H169.191V52.2624H173.219ZM173.219 64.7347C175.113 64.7347 176.553 64.2418 177.539 63.256C178.537 62.2571 179.037 60.8692 179.037 59.092C179.037 57.3019 178.537 55.9075 177.539 54.9086C176.553 53.8968 175.113 53.3909 173.219 53.3909H170.553V64.7347H173.219ZM184.291 57.1268C184.59 56.4652 185.044 55.9529 185.654 55.5897C186.276 55.2264 187.035 55.0448 187.93 55.0448V56.4652H187.56C186.575 56.4652 185.783 56.7312 185.187 57.263C184.59 57.7949 184.291 58.6834 184.291 59.9287V65.8633H182.929V55.2394H184.291V57.1268ZM199.591 60.0065C199.591 60.4735 199.578 60.8302 199.552 61.0767H190.738C190.777 61.881 190.971 62.5685 191.322 63.1392C191.672 63.71 192.132 64.1445 192.703 64.4429C193.274 64.7283 193.897 64.8709 194.571 64.8709C195.453 64.8709 196.193 64.6569 196.789 64.2288C197.399 63.8008 197.801 63.2235 197.996 62.4971H199.435C199.176 63.5349 198.618 64.3845 197.762 65.0461C196.919 65.6946 195.855 66.0189 194.571 66.0189C193.572 66.0189 192.677 65.7984 191.886 65.3574C191.095 64.9034 190.472 64.2678 190.018 63.4505C189.577 62.6203 189.356 61.6539 189.356 60.5513C189.356 59.4488 189.577 58.4824 190.018 57.6522C190.459 56.822 191.075 56.1864 191.866 55.7453C192.658 55.3043 193.559 55.0838 194.571 55.0838C195.583 55.0838 196.465 55.3043 197.217 55.7453C197.983 56.1864 198.566 56.7831 198.968 57.5354C199.384 58.2748 199.591 59.0985 199.591 60.0065ZM198.21 59.9676C198.223 59.1763 198.06 58.5018 197.723 57.944C197.399 57.3862 196.951 56.9647 196.381 56.6793C195.81 56.3939 195.187 56.2512 194.513 56.2512C193.501 56.2512 192.638 56.5755 191.925 57.2241C191.211 57.8727 190.816 58.7872 190.738 59.9676H198.21ZM201.46 60.5319C201.46 59.4423 201.674 58.4888 202.102 57.6716C202.544 56.8414 203.147 56.2058 203.912 55.7648C204.69 55.3108 205.566 55.0838 206.539 55.0838C207.551 55.0838 208.42 55.3172 209.146 55.7842C209.886 56.2512 210.417 56.8479 210.742 57.5743V55.2394H212.104V65.8633H210.742V63.5089C210.404 64.2353 209.866 64.8385 209.127 65.3185C208.4 65.7855 207.531 66.0189 206.519 66.0189C205.559 66.0189 204.69 65.7919 203.912 65.3379C203.147 64.8839 202.544 64.2418 202.102 63.4116C201.674 62.5814 201.46 61.6215 201.46 60.5319ZM210.742 60.5513C210.742 59.6952 210.567 58.9429 210.216 58.2943C209.866 57.6457 209.386 57.1463 208.776 56.796C208.18 56.4458 207.518 56.2707 206.792 56.2707C206.039 56.2707 205.365 56.4393 204.768 56.7766C204.171 57.1138 203.698 57.6068 203.348 58.2553C203.011 58.891 202.842 59.6498 202.842 60.5319C202.842 61.401 203.011 62.1663 203.348 62.8279C203.698 63.4765 204.171 63.9759 204.768 64.3261C205.365 64.6634 206.039 64.832 206.792 64.832C207.518 64.832 208.18 64.6569 208.776 64.3067C209.386 63.9564 209.866 63.457 210.216 62.8084C210.567 62.1598 210.742 61.4075 210.742 60.5513ZM227.861 55.0448C229.106 55.0448 230.118 55.4405 230.896 56.2318C231.687 57.0101 232.083 58.1451 232.083 59.6368V65.8633H230.74V59.7925C230.74 58.638 230.461 57.7559 229.904 57.1463C229.346 56.5366 228.587 56.2318 227.627 56.2318C226.628 56.2318 225.831 56.5625 225.234 57.2241C224.637 57.8857 224.339 58.8456 224.339 60.1038V65.8633H222.996V59.7925C222.996 58.638 222.717 57.7559 222.16 57.1463C221.602 56.5366 220.836 56.2318 219.864 56.2318C218.865 56.2318 218.067 56.5625 217.47 57.2241C216.874 57.8857 216.575 58.8456 216.575 60.1038V65.8633H215.213V55.2394H216.575V57.0684C216.912 56.4069 217.392 55.9075 218.015 55.5702C218.638 55.22 219.332 55.0448 220.097 55.0448C221.018 55.0448 221.822 55.2654 222.51 55.7064C223.21 56.1474 223.716 56.796 224.027 57.6522C224.313 56.809 224.799 56.1669 225.487 55.7259C226.187 55.2718 226.979 55.0448 227.861 55.0448ZM238.766 66.0189C237.546 66.0189 236.548 65.74 235.769 65.1823C235.004 64.6115 234.576 63.8397 234.485 62.8668H235.886C235.951 63.4635 236.23 63.9499 236.723 64.3261C237.229 64.6893 237.903 64.8709 238.746 64.8709C239.486 64.8709 240.063 64.6958 240.478 64.3456C240.906 63.9953 241.12 63.5608 241.12 63.0419C241.12 62.6787 241.003 62.3804 240.77 62.1469C240.536 61.9134 240.238 61.7318 239.875 61.6021C239.525 61.4594 239.045 61.3102 238.435 61.1545C237.644 60.947 237.002 60.7394 236.509 60.5319C236.016 60.3243 235.594 60.0195 235.244 59.6174C234.907 59.2023 234.738 58.651 234.738 57.9635C234.738 57.4446 234.894 56.9647 235.205 56.5236C235.516 56.0826 235.957 55.7323 236.528 55.4729C237.099 55.2135 237.748 55.0838 238.474 55.0838C239.615 55.0838 240.536 55.3756 241.237 55.9593C241.937 56.5301 242.314 57.3214 242.365 58.3332H241.003C240.965 57.7105 240.718 57.2111 240.264 56.8349C239.823 56.4458 239.213 56.2512 238.435 56.2512C237.748 56.2512 237.19 56.4134 236.762 56.7377C236.334 57.0619 236.12 57.4641 236.12 57.944C236.12 58.3591 236.243 58.7029 236.489 58.9753C236.749 59.2347 237.067 59.4423 237.443 59.5979C237.819 59.7406 238.325 59.9028 238.96 60.0844C239.726 60.2919 240.335 60.493 240.789 60.6876C241.243 60.8821 241.633 61.1675 241.957 61.5437C242.281 61.9199 242.45 62.4193 242.463 63.0419C242.463 63.6127 242.307 64.1251 241.996 64.5791C241.684 65.0201 241.25 65.3704 240.692 65.6298C240.134 65.8892 239.492 66.0189 238.766 66.0189Z" fill="white" fill-opacity="0.76"/>
<path d="M4.10278 16.987C4.52529 16.987 4.90332 17.0981 5.23688 17.3205C5.59268 17.5429 5.80393 17.932 5.87064 18.488C6.13749 20.2447 6.30427 22.0015 6.37098 23.7582C6.45993 25.4927 6.50441 27.4607 6.50441 29.6622C6.50441 30.5962 6.42658 32.2973 6.27092 34.7657C7.24936 34.8546 8.00542 34.8991 8.53912 34.8991C8.91715 34.8991 9.77329 34.8435 11.1075 34.7323C11.8858 34.6211 12.5641 34.5655 13.1422 34.5655C13.6759 34.5655 14.1652 34.6211 14.6099 34.7323C15.0546 34.8213 15.5105 34.9769 15.9775 35.1993C16.4445 35.4661 16.678 35.8775 16.678 36.4335C16.678 36.8782 16.5334 37.2785 16.2443 37.6343C15.9775 37.9901 15.6551 38.168 15.277 38.168C15.0102 38.168 14.5877 38.1235 14.0095 38.0345C12.9643 37.8789 11.9637 37.8011 11.0075 37.8011C10.6961 37.8011 10.3403 37.8233 9.94007 37.8678C9.56203 37.89 9.28407 37.9011 9.10617 37.9011C8.57247 37.9678 8.03878 38.0012 7.50508 38.0012C6.41546 38.0012 5.43702 37.9456 4.56976 37.8344C4.12502 37.7899 3.68027 37.6232 3.23553 37.3341C2.79078 37.0227 2.56841 36.578 2.56841 35.9998C2.56841 35.6663 2.61288 34.8101 2.70183 33.4314C2.85749 31.141 2.93532 29.3954 2.93532 28.1945C2.93532 27.2606 2.89085 26.2821 2.8019 25.2592C2.71295 24.2363 2.65736 23.5914 2.63512 23.3246C2.43498 21.4344 2.33492 19.8778 2.33492 18.6547C2.33492 18.0766 2.46834 17.6541 2.73519 17.3872C3.02427 17.1204 3.48014 16.987 4.10278 16.987ZM34.4528 37.6676C34.1637 37.2896 33.9191 36.8782 33.7189 36.4335C33.5188 35.9665 33.3075 35.4105 33.0852 34.7657C33.0407 34.6545 32.9073 34.3209 32.6849 33.765C32.4848 33.2091 32.2513 32.731 31.9844 32.3307C30.5835 32.5308 29.4383 32.6309 28.5488 32.6309C28.0595 32.6309 27.5147 32.6198 26.9143 32.5975C26.3362 32.5531 25.9025 32.5308 25.6134 32.5308C24.5016 32.4419 23.6121 32.3974 22.945 32.3974C22.6781 32.7532 22.4446 33.1312 22.2445 33.5315C22.0666 33.9318 21.8331 34.5322 21.544 35.3327C21.1438 36.4891 20.7991 37.3118 20.51 37.8011C20.3099 38.1346 19.9207 38.3014 19.3425 38.3014C18.8533 38.3014 18.3974 38.2013 17.9749 38.0012C17.5747 37.7788 17.3745 37.4786 17.3745 37.1006C17.5524 36.2556 17.8304 35.3661 18.2084 34.4321C18.6087 33.4759 19.1758 32.2084 19.9096 30.6295L21.2438 27.3606C21.9776 25.4927 22.6448 23.8916 23.2452 22.5574C23.8678 21.2232 24.6795 19.6443 25.6802 17.8209C25.8136 17.554 26.036 17.3316 26.3473 17.1537C26.6586 16.9536 27.0033 16.8535 27.3813 16.8535C27.8038 16.8535 28.104 16.8869 28.2819 16.9536C28.4821 16.9981 28.6377 17.087 28.7489 17.2204C28.8601 17.3316 29.0269 17.5762 29.2492 17.9543C30.0053 19.1329 30.6502 20.3448 31.1839 21.5901C31.7398 22.8354 32.4403 24.5587 33.2853 26.7602L33.9858 28.5281C34.6084 30.1292 35.1421 31.4745 35.5869 32.5642C36.0539 33.6316 36.5653 34.61 37.1212 35.4995C37.477 36.0777 37.6549 36.4779 37.6549 36.7003C37.6549 37.234 37.4882 37.6454 37.1546 37.9345C36.8433 38.2013 36.4319 38.3347 35.9204 38.3347C35.2755 38.3347 34.7863 38.1124 34.4528 37.6676ZM31.0171 29.5955C30.6613 28.8394 30.1499 27.5274 29.4827 25.6595C28.7934 23.6581 28.104 22.0682 27.4147 20.8896C26.9922 21.957 26.3695 23.3357 25.5467 25.0257C24.9908 26.0709 24.357 27.583 23.6454 29.5621C25.0686 29.74 26.603 29.829 28.2486 29.829C29.4271 29.829 30.35 29.7512 31.0171 29.5955ZM57.9236 31.4301C57.9236 32.6754 57.4455 33.8651 56.4893 34.9992C55.5553 36.111 54.3656 36.9894 52.9202 37.6343C52.2976 37.8344 51.5082 38.0012 50.552 38.1346C49.5958 38.2458 48.6284 38.3125 47.65 38.3347C45.7376 38.3347 43.9586 38.0679 42.313 37.5342C42.024 37.4675 41.6904 37.2785 41.3124 36.9672C40.9343 36.6558 40.7564 36.2444 40.7787 35.733V34.5989C40.7787 33.3536 40.7453 32.1528 40.6786 30.9964C40.6341 29.4843 40.6119 28.328 40.6119 27.5274L40.5785 23.7582C40.5785 22.424 40.623 21.0786 40.712 19.7221C40.7342 19.0328 40.9899 18.4546 41.4791 17.9876C41.9906 17.4984 42.6244 17.1982 43.3804 17.087C43.6695 17.0648 44.1921 17.0537 44.9482 17.0537L48.1503 17.087C49.6847 17.087 51.0523 17.2872 52.2531 17.6874C53.4539 18.0877 54.488 18.7326 55.3552 19.6221C55.6443 19.9556 55.8778 20.4004 56.0557 20.9563C56.2336 21.49 56.3225 22.0126 56.3225 22.524C56.2558 24.3253 55.2218 25.7929 53.2204 26.927C54.8215 27.1272 56.0001 27.6275 56.7562 28.428C57.5345 29.2286 57.9236 30.2293 57.9236 31.4301ZM45.3151 26.1265C45.5374 26.1042 45.8932 26.0931 46.3825 26.0931H47.8835C48.5506 26.0931 49.0176 26.0709 49.2844 26.0264C51.5526 25.515 52.6867 24.6143 52.6867 23.3246C52.6867 22.991 52.6311 22.6352 52.52 22.2572C52.431 21.8792 52.3087 21.6123 52.153 21.4566C51.5749 20.9007 51.0301 20.5449 50.5186 20.3893C50.0071 20.2114 49.2511 20.1224 48.2504 20.1224C46.3158 20.1224 44.9259 20.2225 44.0809 20.4226L44.1143 26.1598L45.3151 26.1265ZM46.8494 35.5329C49.1621 35.5329 50.9745 35.2438 52.2865 34.6656C53.6207 34.0874 54.2878 32.9533 54.2878 31.2633C54.2878 30.5962 53.7986 30.0514 52.8202 29.6289C51.8417 29.1841 50.7743 28.9617 49.618 28.9617C48.1948 28.9617 47.1941 28.9951 46.616 29.0618C46.1267 29.1063 45.7932 29.1285 45.6153 29.1285C45.2817 29.1285 45.0482 29.1174 44.9148 29.0952C44.8036 29.0952 44.6702 29.0952 44.5145 29.0952C44.3811 29.0729 44.2366 29.0729 44.0809 29.0952L44.1143 30.1959C44.1365 30.4627 44.1699 31.1966 44.2143 32.3974C44.281 33.576 44.2922 34.4099 44.2477 34.8991C44.7591 35.1215 45.2039 35.2882 45.5819 35.3994C45.96 35.4884 46.3825 35.5329 46.8494 35.5329ZM71.7942 38.2013C70.3265 38.2013 68.9812 38.0234 67.7581 37.6676C66.5351 37.2896 65.5344 36.7448 64.7561 36.0332C63.3329 34.7657 62.3322 33.387 61.7541 31.8971C61.1981 30.3849 60.9202 28.4614 60.9202 26.1265C60.9202 25.6373 60.9869 25.1814 61.1203 24.7589C61.276 24.3141 61.4761 23.8249 61.7207 23.2912C61.7874 23.1356 61.8875 22.891 62.0209 22.5574C62.1766 22.2016 62.2767 21.8792 62.3211 21.5901C62.7436 20.8118 63.4552 20.0668 64.4559 19.3552C65.4788 18.6436 66.5796 18.0766 67.7581 17.6541C68.9367 17.2093 69.9708 16.987 70.8602 16.987C75.152 16.987 78.2208 18.4546 80.0665 21.3899C81.1116 23.1022 81.6342 24.8256 81.6342 26.5601C81.6342 28.8061 81.2228 30.7741 80.4 32.4641C79.5995 34.1541 78.4876 35.4661 77.0644 36.4001C76.175 36.9338 75.2632 37.3674 74.3293 37.701C73.3953 38.0345 72.5503 38.2013 71.7942 38.2013ZM64.3892 28.5948C64.367 29.8179 64.6227 30.8297 65.1564 31.6302C65.7123 32.4085 66.5796 33.2646 67.7581 34.1986C68.6476 34.5322 69.2703 34.7545 69.6261 34.8657C69.9819 34.9769 70.371 35.0325 70.7935 35.0325C72.239 35.0325 73.5176 34.7323 74.6295 34.1319C75.7413 33.5315 76.5975 32.7087 77.1979 31.6636C77.8205 30.6184 78.1318 29.451 78.1318 28.1612C78.1318 26.4712 77.9428 25.1369 77.5648 24.1585C77.1868 23.18 76.5085 22.3017 75.5301 21.5234C75.0186 21.1009 74.3626 20.7895 73.5621 20.5894C72.7838 20.3893 71.9499 20.2892 71.0604 20.2892C68.9256 20.2892 67.2689 21.0453 66.0903 22.5574C64.934 24.0473 64.367 26.0598 64.3892 28.5948ZM96.9339 29.3286C98.8685 32.6198 100.681 35.2326 102.371 37.1673C102.549 37.3452 102.638 37.5453 102.638 37.7677C102.638 38.0568 102.46 38.3014 102.104 38.5015C101.748 38.7239 101.337 38.8351 100.87 38.8351C100.181 38.8351 99.4356 38.546 98.635 37.9678C98.0569 37.5676 97.5232 36.9783 97.034 36.2C96.5447 35.3994 95.9888 34.3765 95.3662 33.1312L94.7991 31.9971C94.2209 30.952 93.8763 30.3404 93.7651 30.1625C93.2759 30.3627 92.7088 30.5072 92.0639 30.5962C91.419 30.6851 90.6296 30.763 89.6957 30.8297C89.7401 33.676 89.7624 35.6663 89.7624 36.8004C89.7624 37.2229 89.6067 37.5676 89.2954 37.8344C88.9841 38.079 88.5949 38.2013 88.1279 38.2013C87.5498 38.2013 87.105 37.9678 86.7937 37.5009C86.4824 36.8782 86.3267 35.9109 86.3267 34.5989L86.3601 32.1639C86.3601 30.6518 86.3934 29.2175 86.4601 27.861C86.5046 26.082 86.5268 24.77 86.5268 23.925L86.5602 22.2238C86.5602 21.7124 86.5268 21.1898 86.4601 20.6561C86.1043 20.5449 85.793 20.3781 85.5262 20.1558C85.2593 19.9112 85.1259 19.6443 85.1259 19.3552C85.1259 18.7993 85.326 18.3768 85.7263 18.0877C86.1488 17.7764 86.6714 17.5762 87.294 17.4873C89.0953 17.1982 90.852 17.0537 92.5643 17.0537C95.4774 17.0537 97.8901 17.5985 99.8025 18.6881C101.715 19.7777 102.671 21.4344 102.671 23.6581C102.671 24.3475 102.515 25.0146 102.204 25.6595C101.915 26.2821 101.515 26.8047 101.003 27.2272C99.6691 28.2724 98.3126 28.9729 96.9339 29.3286ZM99.1354 23.5581C99.1354 22.4907 98.5683 21.6234 97.4342 20.9563C96.3224 20.267 94.7213 19.9223 92.631 19.9223C91.7193 19.9223 90.7853 20.0335 89.8291 20.2558C89.8736 21.0564 89.8958 21.6234 89.8958 21.957C89.8958 22.6241 89.8513 23.5803 89.7624 24.8256C89.7179 26.0709 89.6957 27.0716 89.6957 27.8276C91.1856 27.8276 92.6087 27.6275 93.9652 27.2272C94.9437 26.9381 95.7664 26.6602 96.4336 26.3933C97.1007 26.1265 97.7122 25.7596 98.2681 25.2926C98.8463 24.8034 99.1354 24.2252 99.1354 23.5581ZM121.257 32.1305C121.257 33.1757 121.013 34.0763 120.524 34.8324C120.057 35.5662 119.278 36.2444 118.189 36.8671C117.455 37.3118 116.599 37.6454 115.62 37.8678C114.642 38.0901 113.652 38.2013 112.652 38.2013C111.629 38.2013 110.361 37.8678 108.849 37.2006C107.759 36.667 106.892 36.0332 106.247 35.2994C105.625 34.5655 105.313 33.765 105.313 32.8977C105.313 32.2973 105.447 31.8637 105.714 31.5969C105.98 31.3078 106.414 31.1632 107.014 31.1632C107.326 31.1632 107.648 31.2966 107.982 31.5635C108.315 31.8081 108.515 32.0527 108.582 32.2973C108.893 33.2091 109.438 33.9095 110.217 34.3987C110.995 34.8657 111.962 35.0992 113.119 35.0992C114.453 35.0992 115.565 34.8546 116.454 34.3654C117.366 33.8762 117.822 33.2202 117.822 32.3974C117.822 31.5969 117.333 30.8853 116.354 30.2626C115.376 29.64 114.375 29.2063 113.352 28.9617C111.884 28.5615 110.584 28.0834 109.449 27.5274C108.271 26.9493 107.392 26.2377 106.814 25.3926C106.236 24.5476 105.947 23.6581 105.947 22.7242C105.947 21.8569 106.247 20.9785 106.848 20.0891C107.448 19.1773 108.16 18.5213 108.982 18.1211C109.427 17.8987 110.183 17.6652 111.251 17.4206C112.34 17.1537 113.13 17.0203 113.619 17.0203C114.264 17.0203 114.975 17.0981 115.754 17.2538C116.532 17.4095 117.166 17.6318 117.655 17.9209C118.633 18.4769 119.356 18.9772 119.823 19.4219C120.29 19.8667 120.524 20.4226 120.524 21.0897C120.524 21.49 120.368 21.8458 120.057 22.1571C119.768 22.4684 119.256 22.6241 118.522 22.6241C118.344 22.6241 118.166 22.5463 117.989 22.3906C117.811 22.235 117.588 22.0015 117.321 21.6901C116.966 21.2232 116.621 20.9118 116.287 20.7562C115.954 20.645 115.465 20.5227 114.82 20.3893C114.197 20.2558 113.641 20.1891 113.152 20.1891C112.618 20.1891 112.062 20.3003 111.484 20.5227C110.906 20.7451 110.417 21.0675 110.016 21.49C109.638 21.8903 109.449 22.3573 109.449 22.891C109.449 23.3357 109.65 23.7249 110.05 24.0584C110.472 24.3697 110.973 24.6255 111.551 24.8256C112.218 25.0924 112.941 25.3259 113.719 25.5261C114.742 25.8374 115.576 26.1265 116.221 26.3933C116.888 26.6379 117.533 26.9493 118.155 27.3273C119.245 27.9722 120.034 28.6393 120.524 29.3286C121.013 29.9958 121.257 30.9297 121.257 32.1305ZM142.243 16.9536C143.666 16.9536 144.889 17.1315 145.912 17.4873C146.957 17.8431 147.88 18.3879 148.68 19.1217C150.081 20.3893 151.06 21.7791 151.616 23.2912C152.194 24.7811 152.483 26.6935 152.483 29.0284C152.483 29.6066 152.405 30.1514 152.25 30.6629C152.094 31.1521 151.86 31.7525 151.549 32.4641L151.115 33.5315C150.804 34.3765 150.159 35.1659 149.181 35.8998C148.202 36.6114 147.102 37.1784 145.879 37.6009C144.655 38.0234 143.544 38.2347 142.543 38.2347C140.497 38.2347 138.707 37.9011 137.173 37.234C135.66 36.5446 134.404 35.4661 133.403 33.9985C132.892 33.2202 132.492 32.3529 132.203 31.3967C131.914 30.4183 131.769 29.4843 131.769 28.5948C131.769 26.3266 132.169 24.3586 132.97 22.6908C133.793 21.0008 134.927 19.6888 136.372 18.7548C137.195 18.2656 138.173 17.8431 139.307 17.4873C140.464 17.1315 141.442 16.9536 142.243 16.9536ZM135.305 28.5948C135.305 29.7512 135.583 30.8297 136.139 31.8303C136.717 32.8088 137.484 33.5871 138.44 34.1653C139.419 34.7434 140.486 35.0325 141.642 35.0325C144.022 35.0325 145.834 34.4321 147.079 33.2313C148.347 32.0305 148.981 30.3404 148.981 28.1612C148.981 26.4712 148.792 25.1369 148.414 24.1585C148.036 23.18 147.357 22.3017 146.379 21.5234C145.845 21.0786 145.267 20.7673 144.644 20.5894C144.044 20.3893 143.332 20.2892 142.51 20.2892C141.086 20.2892 139.83 20.645 138.74 21.3566C137.651 22.0682 136.806 23.0577 136.205 24.3253C135.605 25.5928 135.305 27.016 135.305 28.5948ZM158.143 38.268C157.631 38.268 157.242 38.1346 156.975 37.8678C156.709 37.5787 156.575 37.2896 156.575 37.0005C156.709 36.2 156.786 35.3438 156.809 34.4321C156.831 33.5204 156.842 32.9756 156.842 32.7977V31.5969C156.842 30.6851 156.831 29.8846 156.809 29.1952C156.786 28.4836 156.764 27.8832 156.742 27.394C156.653 25.4371 156.608 23.9139 156.608 22.8242V21.7902C156.653 20.7228 156.709 19.7888 156.775 18.9883C156.797 18.677 156.986 18.3434 157.342 17.9876C157.72 17.6318 158.232 17.4095 158.877 17.3205C160.989 17.0981 163.613 16.987 166.749 16.987H167.816C168.594 16.987 169.362 17.1315 170.118 17.4206C170.896 17.7097 171.285 18.1989 171.285 18.8882C171.285 19.3552 171.174 19.7333 170.951 20.0223C170.729 20.2892 170.295 20.4226 169.651 20.4226C169.362 20.4226 169.028 20.4004 168.65 20.3559C168.272 20.3114 168.005 20.2781 167.849 20.2558C167.004 20.1224 166.348 20.0557 165.881 20.0557C163.302 20.0557 161.345 20.2336 160.011 20.5894V22.424V26.2599C161.523 26.2599 163.102 26.1932 164.747 26.0598C165.948 25.9708 166.726 25.9263 167.082 25.9263C167.594 25.9263 168.027 26.0486 168.383 26.2933C168.761 26.5156 168.95 26.8603 168.95 27.3273C168.95 28.4836 168.161 29.0618 166.582 29.0618C166.204 29.0618 165.637 29.1063 164.881 29.1952C164.036 29.2842 163.38 29.3286 162.913 29.3286C162.624 29.3286 162.212 29.3064 161.679 29.2619C160.989 29.2175 160.522 29.2063 160.278 29.2286C160.255 29.8067 160.266 30.7074 160.311 31.9304L160.344 34.1653C160.344 34.9213 160.333 35.4884 160.311 35.8664C160.289 36.2222 160.222 36.6114 160.111 37.0339C160.044 37.3897 159.844 37.6899 159.51 37.9345C159.177 38.1569 158.721 38.268 158.143 38.268ZM179.297 18.7215C179.297 17.7653 179.997 17.2872 181.398 17.2872C181.999 17.2872 183.144 17.3094 184.834 17.3539C186.702 17.4428 188.114 17.4873 189.07 17.4873C189.848 17.4873 190.793 17.4428 191.905 17.3539C192.661 17.3094 193.139 17.2872 193.34 17.2872C194.563 17.3316 195.597 17.554 196.442 17.9543C196.686 18.0655 196.886 18.1989 197.042 18.3545C197.198 18.5102 197.276 18.7659 197.276 19.1217C197.276 19.611 197.12 20.0335 196.809 20.3893C196.497 20.7228 196.119 20.8896 195.674 20.8896C195.185 20.8896 194.474 20.8229 193.54 20.6895C192.717 20.5338 191.994 20.456 191.372 20.456C190.771 20.456 190.315 20.4671 190.004 20.4893C189.937 21.2232 189.904 22.9799 189.904 25.7596C189.904 29.0729 190.004 32.4307 190.204 35.8331L190.271 36.8004C190.271 37.7121 189.748 38.168 188.703 38.168C187.88 38.168 187.324 37.979 187.035 37.6009C186.746 37.2006 186.602 36.6002 186.602 35.7997C186.602 34.2209 186.557 32.2529 186.468 29.8957C186.379 27.9388 186.335 26.549 186.335 25.7262C186.335 25.1703 186.402 23.4691 186.535 20.6227L182.632 20.6561C181.387 20.6561 180.52 20.5449 180.031 20.3225C179.541 20.0779 179.297 19.5442 179.297 18.7215ZM213.705 33.6316C214.127 33.6316 214.439 33.7983 214.639 34.1319C214.861 34.4432 214.972 34.7879 214.972 35.1659C214.972 35.6329 214.895 35.9665 214.739 36.1666C214.606 36.3445 214.339 36.5335 213.938 36.7337C213.004 37.1784 211.848 37.5342 210.469 37.8011C209.091 38.0679 207.612 38.2013 206.033 38.2013C204.054 38.2013 202.597 37.8678 201.663 37.2006C200.752 36.5335 200.185 35.733 199.962 34.799C199.762 33.8428 199.662 32.5975 199.662 31.0632C199.662 29.4176 199.729 27.8054 199.862 26.2265C199.996 24.6255 200.229 22.5907 200.563 20.1224C200.718 19.055 201.141 18.2878 201.83 17.8209C202.52 17.3316 203.276 17.087 204.098 17.087C204.788 17.087 205.911 17.0648 207.467 17.0203L210.369 16.987C211.57 16.987 212.437 17.0203 212.971 17.087C213.638 17.2204 214.127 17.3761 214.439 17.554C214.772 17.7097 214.939 17.9876 214.939 18.3879C214.939 18.8326 214.783 19.2663 214.472 19.6888C214.183 20.1113 213.738 20.3225 213.138 20.3225C212.449 20.3225 211.459 20.2781 210.169 20.1891C208.879 20.1002 207.912 20.0557 207.267 20.0557C206.711 20.0557 206.166 20.0891 205.633 20.1558C205.01 20.2002 204.565 20.2781 204.299 20.3893C204.032 20.5004 203.876 20.6895 203.832 20.9563C203.52 23.2467 203.365 24.9368 203.365 26.0264C203.876 26.0931 204.376 26.1265 204.866 26.1265C205.488 26.1265 206.155 26.0931 206.867 26.0264C207.579 25.9597 208.034 25.9152 208.235 25.893C209.413 25.7818 210.425 25.7262 211.27 25.7262C211.759 25.7262 212.126 25.8152 212.371 25.9931C212.638 26.171 212.771 26.4156 212.771 26.7269C212.771 27.2161 212.638 27.5941 212.371 27.861C212.126 28.1278 211.681 28.328 211.036 28.4614C210.258 28.6171 209.291 28.7394 208.134 28.8283C207 28.9173 205.889 28.9617 204.799 28.9617C204.421 28.9617 203.898 28.9395 203.231 28.895C203.164 30.2515 203.131 31.5079 203.131 32.6642C203.131 34.2431 204.176 35.0325 206.267 35.0325C207.378 35.0325 208.301 34.9547 209.035 34.799C209.769 34.6434 210.614 34.421 211.57 34.1319C212.46 33.7983 213.171 33.6316 213.705 33.6316ZM234.711 19.6554C235.045 20.0557 235.278 20.3781 235.412 20.6227C235.545 20.8674 235.612 21.1009 235.612 21.3232C235.612 21.5901 235.434 21.9014 235.078 22.2572C234.744 22.613 234.411 22.7909 234.077 22.7909C233.633 22.7909 233.277 22.7242 233.01 22.5907C232.743 22.4573 232.521 22.2461 232.343 21.957C231.987 21.4233 231.553 20.9674 231.042 20.5894C230.53 20.1891 229.73 19.989 228.64 19.989C227.706 19.989 226.639 20.2002 225.438 20.6227C224.26 21.0453 223.415 21.5678 222.903 22.1905C222.458 22.7464 222.069 23.5914 221.736 24.7255C221.424 25.8596 221.269 26.9604 221.269 28.0278C221.269 29.3175 221.547 30.5072 222.103 31.5969C222.681 32.6642 223.503 33.5204 224.571 34.1653C225.661 34.8101 226.961 35.1326 228.474 35.1326C229.296 35.1326 230.141 34.9769 231.009 34.6656C231.898 34.332 232.665 33.7983 233.31 33.0645H233.277C233.677 32.642 234.177 32.4307 234.778 32.4307C235.134 32.4307 235.467 32.5864 235.778 32.8977C236.112 33.2091 236.279 33.5204 236.279 33.8317C236.279 34.1653 236.223 34.4655 236.112 34.7323C236.023 34.9769 235.845 35.2549 235.578 35.5662C234.667 36.5891 233.588 37.2896 232.343 37.6676C231.098 38.0457 229.608 38.2347 227.873 38.2347C226.339 38.2347 224.782 37.8678 223.203 37.1339C221.647 36.4001 220.446 35.5106 219.601 34.4655C219.156 33.8206 218.722 32.8977 218.3 31.6969C217.9 30.4739 217.7 29.4843 217.7 28.7282C217.7 26.7936 217.989 24.959 218.567 23.2245C219.167 21.4678 220.057 20.0668 221.235 19.0217C222.014 18.3101 223.137 17.7764 224.604 17.4206C226.072 17.0648 227.417 16.8869 228.64 16.8869C230.13 16.8869 231.298 17.0981 232.143 17.5206C233.01 17.9209 233.866 18.6325 234.711 19.6554ZM254.577 26.2265C254.555 25.8707 254.544 25.3371 254.544 24.6255V23.3579C254.544 22.5129 254.522 21.8792 254.477 21.4566C254.433 21.1009 254.41 20.178 254.41 18.6881C254.41 18.1544 254.566 17.743 254.877 17.4539C255.211 17.1426 255.656 16.987 256.212 16.987C256.923 16.987 257.401 17.1426 257.646 17.4539C257.891 17.7653 258.013 18.2767 258.013 18.9883V20.2558L257.979 23.925C257.957 24.6366 257.946 25.704 257.946 27.1272L257.979 29.8623C258.002 30.2849 258.013 30.8741 258.013 31.6302C258.013 32.2306 258.035 33.0867 258.08 34.1986C258.124 35.2215 258.146 35.9887 258.146 36.5002C258.146 36.9227 258.024 37.3118 257.779 37.6676C257.557 38.0234 257.246 38.2013 256.845 38.2013C255.289 38.2013 254.51 37.6787 254.51 36.6336C254.51 36.0554 254.533 35.4105 254.577 34.699C254.622 34.1875 254.644 33.4092 254.644 32.364C254.644 31.6302 254.622 30.5739 254.577 29.1952C253.532 29.2842 251.731 29.3286 249.173 29.3286C247.572 29.3286 246.327 29.3286 245.438 29.3286C244.548 29.3064 243.903 29.2508 243.503 29.1619L243.47 32.9978C243.47 33.2424 243.525 33.8984 243.636 34.9658C243.748 35.6774 243.803 36.3 243.803 36.8337C243.803 37.1673 243.603 37.4897 243.203 37.8011C242.825 38.0901 242.469 38.2347 242.135 38.2347C241.335 38.2347 240.79 38.0457 240.501 37.6676C240.212 37.2674 240.067 36.667 240.067 35.8664L240.034 33.2313C240.012 32.92 240.001 32.4863 240.001 31.9304C240.001 31.1076 239.978 29.9846 239.934 28.5615C239.889 27.2717 239.867 26.3377 239.867 25.7596C239.867 24.8923 239.889 23.6804 239.934 22.1238C239.978 20.6561 240.001 19.5665 240.001 18.8549C240.001 18.1433 240.179 17.6652 240.534 17.4206C240.89 17.176 241.29 17.0537 241.735 17.0537C242.98 17.0537 243.603 17.4651 243.603 18.2878C243.603 19.7555 243.57 21.1564 243.503 22.4907C243.459 24.1807 243.436 25.4149 243.436 26.1932C244.081 26.3488 244.759 26.4489 245.471 26.4934C246.183 26.5379 247.183 26.5601 248.473 26.5601C251.097 26.5601 253.132 26.4489 254.577 26.2265Z" fill="#FB7957"/>
</svg>
