<svg width="245" height="61" viewBox="0 0 245 61" fill="none" xmlns="http://www.w3.org/2000/svg">
<path d="M228.407 44.3897C220.259 47.3787 224.227 56.042 227.23 60C221.447 60 218.734 52.4253 218.836 52.5789C215.868 42.9056 226.923 38.4016 226.923 38.3504C228.233 37.7772 228.8 36.4055 228.919 35.7914V28.9331C228.796 27.7866 229.311 27.2611 229.584 27.1417C230.147 26.2716 235.726 16.8542 235.829 16.7007C237.773 6.56678 227.435 8.10222 227.486 8.05104C222.317 2.72817 215.561 2.98408 215.612 2.98408C213.821 2.98408 214.486 2.1651 214.435 2.1651C217.659 0.476112 226.206 1.09029 226.053 1.19265C239.36 3.49581 241.663 11.8384 241.561 11.8384C242.298 13.3124 242.107 18.2531 241.919 20.5392C240.773 22.3408 241.578 25.1114 242.124 26.2715C242.721 27.4317 243.915 29.7416 243.915 29.7007C244.447 30.3968 244.137 30.9802 243.915 31.185L240.588 32.7204V34.2558C240.742 34.8188 240.384 35.433 240.435 35.4842C239.002 35.5354 239.462 36.4566 239.462 36.4055C240.23 37.122 239.565 37.8385 239.462 37.9409C237.262 38.3503 237.517 41.7795 237.466 41.6771C237.262 44.3898 235.726 44.6968 235.777 44.6456C232.451 43.4684 228.305 44.3897 228.407 44.3897Z" fill="#FB7957" stroke="black" stroke-width="0.204726" stroke-linejoin="round"/>
<path d="M194.576 18.0843C193.809 16.7365 193.205 14.1023 196.931 14.348C196.89 14.348 199.234 12.4713 200.411 11.533C200.479 10.5264 201.005 8.36997 202.561 7.79674C204.506 7.0802 206.45 9.84399 205.939 10.9188C205.98 10.9597 207.048 11.9937 207.576 12.5055C208.788 11.8402 211.548 11.0622 212.899 13.2733C212.94 13.3142 214.418 13.1197 215.151 13.0173C215.765 11.0042 217.7 7.99133 220.525 12.0449C220.628 12.0449 220.935 13.5292 219.706 14.8599C219.625 14.8599 220.116 16.5659 220.372 17.4189C220.884 17.5725 221.887 18.0945 221.805 18.9544C221.846 18.9544 223.835 19.125 224.825 19.2103C225.388 18.5279 226.882 17.2756 228.356 17.726C228.315 17.6851 229.329 16.6171 229.84 16.0882C229.465 14.2969 229.615 11.0725 233.218 12.5055C233.167 12.4032 235.675 16.293 231.069 16.6512L229.636 18.7497C230.062 20.7457 229.84 24.2465 225.541 22.2812C225.49 22.23 224.825 21.5646 224.825 20.8481C224.825 20.889 221.651 20.5922 220.065 20.4387C219.502 20.1998 218.488 19.4662 218.939 18.4426C218.857 18.5245 218.427 16.3953 218.222 15.3205C217.71 15.3205 216.533 15.1158 215.919 14.2969C215.919 14.3378 214.281 14.6893 213.462 14.8599C213.377 16.6853 212.08 19.9064 207.576 18.1867L203.84 21.4623C203.874 21.8717 203.84 22.8442 203.431 23.4584C203.513 23.4993 204.454 24.2943 204.915 24.6867C205.495 24.3967 206.788 23.9906 207.321 24.6867L211.262 21.4623C211.534 19.9951 212.766 17.5008 215.51 19.2615C215.561 19.3127 216.84 21.8205 215.151 22.6395V26.1198C215.744 26.3231 216.905 26.8492 216.842 27.3376C216.939 27.2339 218.763 26.4939 219.706 26.1198C220.218 25.0279 221.6 23.3969 223.033 25.608C223.033 25.7103 223.289 26.6316 222.829 27.1434C222.747 27.1434 223.136 27.6211 223.34 27.86C224.79 27.9282 227.404 28.7505 226.258 31.4938C226.036 31.8862 225.142 32.7427 223.34 33.0293C223.34 33.1112 222.556 33.7117 222.163 34.0017C223.136 36.3902 223.576 40.8805 217.557 39.734C217.608 39.734 213.206 35.3324 218.683 33.0293C219.143 32.944 220.341 32.8246 221.447 33.0293C221.406 33.0293 222.112 32.3127 222.47 31.9545C222.266 31.3574 221.917 29.8253 222.163 28.4741C222.163 28.556 221.344 27.6211 220.935 27.1434L217.557 28.2694C216.96 29.3272 215.315 31.1049 213.514 29.7537C213.411 29.6001 211.978 28.73 213.258 26.4781C213.258 26.4371 213.087 23.9019 213.002 22.6395C212.899 22.3835 212.602 22.0765 212.234 22.8954C212.152 22.9363 209.436 24.7208 208.088 25.608C207.662 26.5804 206.471 28.1875 205.12 26.8363C205.12 26.7135 203.653 25.7956 202.919 25.3521C201.23 26.1539 197.76 26.8261 197.391 23.1001C197.443 23.0489 197.545 19.0056 202.561 20.2339C202.479 20.193 204.983 18.3061 206.246 17.3678C206.075 16.3953 205.836 14.215 206.246 13.2733L205.12 12.2496C204.591 12.4885 203.134 12.874 201.537 12.5055C201.496 12.5055 199.166 14.5187 198.006 15.5252C198.21 16.7024 197.811 18.8622 194.576 18.0843Z" fill="#FB7957"/>
<path d="M194.576 18.0843C193.809 16.7365 193.205 14.1023 196.931 14.348C196.89 14.348 199.234 12.4713 200.411 11.533C200.479 10.5264 201.005 8.36997 202.561 7.79674C204.506 7.0802 206.45 9.84399 205.939 10.9188C205.98 10.9597 207.048 11.9937 207.576 12.5055C208.788 11.8402 211.548 11.0622 212.899 13.2733C212.94 13.3142 214.418 13.1197 215.151 13.0173C215.765 11.0042 217.7 7.99133 220.525 12.0449C220.628 12.0449 220.935 13.5292 219.706 14.8599C219.625 14.8599 220.116 16.5659 220.372 17.4189C220.884 17.5725 221.887 18.0945 221.805 18.9544C221.846 18.9544 223.835 19.125 224.825 19.2103C225.388 18.5279 226.882 17.2756 228.356 17.726C228.315 17.6851 229.329 16.6171 229.84 16.0882C229.465 14.2969 229.615 11.0725 233.218 12.5055C233.167 12.4032 235.675 16.293 231.069 16.6512L229.636 18.7497C230.062 20.7457 229.84 24.2465 225.541 22.2812C225.49 22.23 224.825 21.5646 224.825 20.8481C224.825 20.889 221.651 20.5922 220.065 20.4387C219.502 20.1998 218.488 19.4662 218.939 18.4426C218.857 18.5245 218.427 16.3953 218.222 15.3205C217.71 15.3205 216.533 15.1158 215.919 14.2969C215.919 14.3378 214.281 14.6893 213.462 14.8599C213.377 16.6853 212.08 19.9064 207.576 18.1867L203.84 21.4623C203.874 21.8717 203.84 22.8442 203.431 23.4584C203.513 23.4993 204.454 24.2943 204.915 24.6867C205.495 24.3967 206.788 23.9906 207.321 24.6867L211.262 21.4623C211.534 19.9951 212.766 17.5008 215.51 19.2615C215.561 19.3127 216.84 21.8206 215.151 22.6395C215.151 22.5985 215.151 24.9426 215.151 26.1198C215.748 26.3245 216.922 26.8568 216.84 27.3481C216.758 27.3072 218.717 26.5122 219.706 26.1198C220.218 25.0279 221.6 23.3969 223.033 25.608C223.033 25.7103 223.289 26.6316 222.829 27.1434C222.747 27.1434 223.136 27.6211 223.34 27.86C224.79 27.9282 227.404 28.7505 226.258 31.4938C226.036 31.8862 225.142 32.7427 223.34 33.0293C223.34 33.1112 222.556 33.7117 222.163 34.0017C223.136 36.3902 223.576 40.8805 217.557 39.734C217.608 39.734 213.206 35.3324 218.683 33.0293C219.143 32.944 220.341 32.8246 221.447 33.0293C221.406 33.0293 222.112 32.3127 222.47 31.9545C222.266 31.3574 221.917 29.8253 222.163 28.4741C222.163 28.556 221.344 27.6211 220.935 27.1434L217.557 28.2694C216.96 29.3272 215.315 31.1049 213.514 29.7537C213.411 29.6001 211.978 28.73 213.258 26.4781C213.258 26.4371 213.087 23.9019 213.002 22.6395C212.899 22.3835 212.602 22.0765 212.234 22.8954C212.152 22.9363 209.436 24.7208 208.088 25.608C207.662 26.5804 206.471 28.1875 205.12 26.8363C205.12 26.7135 203.653 25.7956 202.919 25.3521C201.23 26.1539 197.76 26.8261 197.391 23.1001C197.443 23.0489 197.545 19.0056 202.561 20.2339C202.479 20.193 204.983 18.3061 206.246 17.3678C206.075 16.3953 205.836 14.215 206.246 13.2733L205.12 12.2496C204.591 12.4885 203.134 12.874 201.537 12.5055C201.496 12.5055 199.166 14.5187 198.006 15.5252C198.21 16.7024 197.811 18.8622 194.576 18.0843Z" stroke="black" stroke-width="0.204726" stroke-linejoin="round"/>
<circle cx="210.75" cy="8.35985" r="2.45671" fill="#FB7957" stroke="black" stroke-width="0.204726"/>
<circle cx="207.167" cy="21.6651" r="1.53544" fill="#FB7957" stroke="black" stroke-width="0.204726"/>
<circle cx="203.38" cy="15.8293" r="2.04726" fill="#FB7957" stroke="black" stroke-width="0.204726"/>
<circle cx="209.726" cy="31.0808" r="1.74017" fill="#FB7957" stroke="black" stroke-width="0.204726"/>
<circle cx="218.427" cy="23.3035" r="1.74017" fill="#FB7957" stroke="black" stroke-width="0.204726"/>
<circle cx="219.809" cy="30.4179" r="1.3819" fill="#FB7957" stroke="black" stroke-width="0.204726"/>
<circle cx="225.132" cy="14.9616" r="1.48426" fill="#FB7957" stroke="black" stroke-width="0.204726"/>
<circle cx="222.88" cy="10.9685" r="0.870084" fill="#FB7957" stroke="black" stroke-width="0.204726"/>
<circle cx="223.187" cy="22.8435" r="0.870084" fill="#FB7957" stroke="black" stroke-width="0.204726"/>
<circle cx="216.124" cy="17.0076" r="0.870084" fill="#FB7957" stroke="black" stroke-width="0.204726"/>
<circle cx="210.903" cy="25.8123" r="0.870084" fill="#FB7957" stroke="black" stroke-width="0.204726"/>
<circle cx="195.549" cy="21.6139" r="0.972447" fill="#FB7957" stroke="black" stroke-width="0.204726"/>
<path d="M20.39 42.918C20.9593 43.0207 21.4353 43.3007 21.818 43.758C22.21 44.2153 22.406 44.752 22.406 45.368C22.406 45.872 22.2847 46.3247 22.042 46.726C21.8087 47.118 21.454 47.4307 20.978 47.664C20.5113 47.888 19.942 48 19.27 48H16.148V38.172H19.214C20.194 38.172 20.9313 38.4007 21.426 38.858C21.93 39.306 22.182 39.8893 22.182 40.608C22.182 41.2333 22.014 41.742 21.678 42.134C21.342 42.5167 20.9127 42.778 20.39 42.918ZM16.778 42.638H19.242C19.9793 42.638 20.544 42.4653 20.936 42.12C21.3373 41.7653 21.538 41.28 21.538 40.664C21.538 40.0667 21.342 39.5953 20.95 39.25C20.558 38.9047 19.9653 38.732 19.172 38.732H16.778V42.638ZM19.228 47.454C20.0213 47.454 20.642 47.2673 21.09 46.894C21.5473 46.5113 21.776 45.9887 21.776 45.326C21.776 44.6727 21.5427 44.1547 21.076 43.772C20.6187 43.38 19.9887 43.184 19.186 43.184H16.778V47.454H19.228ZM30.6814 40.398V48H30.0514V46.348C29.8368 46.9267 29.4774 47.37 28.9734 47.678C28.4788 47.9767 27.9094 48.126 27.2654 48.126C26.3601 48.126 25.6181 47.8507 25.0394 47.3C24.4701 46.74 24.1854 45.914 24.1854 44.822V40.398H24.8014V44.78C24.8014 45.6853 25.0301 46.3807 25.4874 46.866C25.9448 47.342 26.5654 47.58 27.3494 47.58C28.1708 47.58 28.8241 47.3187 29.3094 46.796C29.8041 46.2733 30.0514 45.4987 30.0514 44.472V40.398H30.6814ZM33.3001 38.704C33.1507 38.704 33.0247 38.6573 32.9221 38.564C32.8194 38.4613 32.7681 38.326 32.7681 38.158C32.7681 37.9993 32.8194 37.8687 32.9221 37.766C33.0247 37.6633 33.1507 37.612 33.3001 37.612C33.4494 37.612 33.5754 37.6633 33.6781 37.766C33.7807 37.8687 33.8321 37.9993 33.8321 38.158C33.8321 38.326 33.7807 38.4613 33.6781 38.564C33.5754 38.6573 33.4494 38.704 33.3001 38.704ZM33.6081 40.398V48H32.9781V40.398H33.6081ZM36.5475 37.64V48H35.9175V37.64H36.5475ZM38.465 44.192C38.465 43.408 38.619 42.722 38.927 42.134C39.2443 41.546 39.6783 41.0933 40.229 40.776C40.789 40.4587 41.4237 40.3 42.133 40.3C42.9077 40.3 43.5797 40.496 44.149 40.888C44.7183 41.2707 45.1197 41.77 45.353 42.386V37.64H45.983V48H45.353V45.984C45.129 46.6093 44.737 47.1227 44.177 47.524C43.617 47.916 42.9357 48.112 42.133 48.112C41.4237 48.112 40.789 47.9533 40.229 47.636C39.6783 47.3093 39.2443 46.852 38.927 46.264C38.619 45.6667 38.465 44.976 38.465 44.192ZM45.353 44.192C45.353 43.5293 45.213 42.946 44.933 42.442C44.6623 41.9287 44.289 41.5367 43.813 41.266C43.337 40.986 42.805 40.846 42.217 40.846C41.601 40.846 41.0597 40.9813 40.593 41.252C40.1263 41.5133 39.7623 41.896 39.501 42.4C39.2397 42.904 39.109 43.5013 39.109 44.192C39.109 44.8827 39.2397 45.48 39.501 45.984C39.7623 46.488 40.1263 46.8753 40.593 47.146C41.069 47.4167 41.6103 47.552 42.217 47.552C42.805 47.552 43.337 47.4167 43.813 47.146C44.2983 46.866 44.6763 46.474 44.947 45.97C45.2177 45.4567 45.353 44.864 45.353 44.192ZM48.5989 38.704C48.4496 38.704 48.3236 38.6573 48.2209 38.564C48.1182 38.4613 48.0669 38.326 48.0669 38.158C48.0669 37.9993 48.1182 37.8687 48.2209 37.766C48.3236 37.6633 48.4496 37.612 48.5989 37.612C48.7482 37.612 48.8742 37.6633 48.9769 37.766C49.0796 37.8687 49.1309 37.9993 49.1309 38.158C49.1309 38.326 49.0796 38.4613 48.9769 38.564C48.8742 38.6573 48.7482 38.704 48.5989 38.704ZM48.9069 40.398V48H48.2769V40.398H48.9069ZM54.6464 40.244C55.5517 40.244 56.289 40.524 56.8584 41.084C57.4277 41.6347 57.7124 42.456 57.7124 43.548V48H57.0964V43.59C57.0964 42.6847 56.8677 41.994 56.4104 41.518C55.953 41.0327 55.3324 40.79 54.5484 40.79C53.727 40.79 53.069 41.0513 52.5744 41.574C52.089 42.0967 51.8464 42.8713 51.8464 43.898V48H51.2164V40.398H51.8464V42.008C52.061 41.4387 52.4157 41.0047 52.9104 40.706C53.4144 40.398 53.993 40.244 54.6464 40.244ZM63.215 40.3C64.0177 40.3 64.699 40.496 65.259 40.888C65.819 41.2707 66.211 41.7653 66.435 42.372V40.398H67.065V48.238C67.065 48.938 66.911 49.5493 66.603 50.072C66.295 50.604 65.8797 51.01 65.357 51.29C64.8343 51.5793 64.251 51.724 63.607 51.724C62.655 51.724 61.8663 51.4953 61.241 51.038C60.6157 50.5807 60.205 49.9647 60.009 49.19H60.639C60.8257 49.7967 61.1757 50.2773 61.689 50.632C62.2023 50.996 62.8417 51.178 63.607 51.178C64.139 51.178 64.6197 51.0567 65.049 50.814C65.4783 50.5807 65.8143 50.24 66.057 49.792C66.309 49.3533 66.435 48.8353 66.435 48.238V46.012C66.211 46.6187 65.8143 47.1227 65.245 47.524C64.685 47.916 64.0083 48.112 63.215 48.112C62.5057 48.112 61.871 47.9533 61.311 47.636C60.7603 47.3093 60.3263 46.852 60.009 46.264C59.701 45.6667 59.547 44.976 59.547 44.192C59.547 43.408 59.701 42.722 60.009 42.134C60.3263 41.546 60.7603 41.0933 61.311 40.776C61.871 40.4587 62.5057 40.3 63.215 40.3ZM66.435 44.192C66.435 43.5293 66.295 42.946 66.015 42.442C65.7443 41.9287 65.371 41.5367 64.895 41.266C64.419 40.986 63.887 40.846 63.299 40.846C62.683 40.846 62.1417 40.9813 61.675 41.252C61.2083 41.5133 60.8443 41.896 60.583 42.4C60.3217 42.904 60.191 43.5013 60.191 44.192C60.191 44.8827 60.3217 45.48 60.583 45.984C60.8443 46.488 61.2083 46.8753 61.675 47.146C62.151 47.4167 62.6923 47.552 63.299 47.552C63.887 47.552 64.419 47.4167 64.895 47.146C65.3803 46.866 65.7583 46.474 66.029 45.97C66.2997 45.4567 66.435 44.864 66.435 44.192ZM76.0681 38.172C77.7294 38.172 79.0081 38.606 79.9041 39.474C80.8094 40.342 81.2621 41.5507 81.2621 43.1C81.2621 44.6493 80.8094 45.8533 79.9041 46.712C79.0081 47.5707 77.7294 48 76.0681 48H73.3101V38.172H76.0681ZM76.0681 47.468C77.5521 47.468 78.6814 47.0853 79.4561 46.32C80.2308 45.5453 80.6181 44.472 80.6181 43.1C80.6181 41.7187 80.2308 40.6407 79.4561 39.866C78.6814 39.0913 77.5521 38.704 76.0681 38.704H73.9401V47.468H76.0681ZM83.4895 38.704C83.3402 38.704 83.2142 38.6573 83.1115 38.564C83.0089 38.4613 82.9575 38.326 82.9575 38.158C82.9575 37.9993 83.0089 37.8687 83.1115 37.766C83.2142 37.6633 83.3402 37.612 83.4895 37.612C83.6389 37.612 83.7649 37.6633 83.8675 37.766C83.9702 37.8687 84.0215 37.9993 84.0215 38.158C84.0215 38.326 83.9702 38.4613 83.8675 38.564C83.7649 38.6573 83.6389 38.704 83.4895 38.704ZM83.7975 40.398V48H83.1675V40.398H83.7975ZM89.383 40.3C90.1857 40.3 90.867 40.496 91.427 40.888C91.987 41.2707 92.379 41.7653 92.603 42.372V40.398H93.233V48.238C93.233 48.938 93.079 49.5493 92.771 50.072C92.463 50.604 92.0477 51.01 91.525 51.29C91.0023 51.5793 90.419 51.724 89.775 51.724C88.823 51.724 88.0343 51.4953 87.409 51.038C86.7837 50.5807 86.373 49.9647 86.177 49.19H86.807C86.9937 49.7967 87.3437 50.2773 87.857 50.632C88.3703 50.996 89.0097 51.178 89.775 51.178C90.307 51.178 90.7877 51.0567 91.217 50.814C91.6463 50.5807 91.9823 50.24 92.225 49.792C92.477 49.3533 92.603 48.8353 92.603 48.238V46.012C92.379 46.6187 91.9823 47.1227 91.413 47.524C90.853 47.916 90.1763 48.112 89.383 48.112C88.6737 48.112 88.039 47.9533 87.479 47.636C86.9283 47.3093 86.4943 46.852 86.177 46.264C85.869 45.6667 85.715 44.976 85.715 44.192C85.715 43.408 85.869 42.722 86.177 42.134C86.4943 41.546 86.9283 41.0933 87.479 40.776C88.039 40.4587 88.6737 40.3 89.383 40.3ZM92.603 44.192C92.603 43.5293 92.463 42.946 92.183 42.442C91.9123 41.9287 91.539 41.5367 91.063 41.266C90.587 40.986 90.055 40.846 89.467 40.846C88.851 40.846 88.3097 40.9813 87.843 41.252C87.3763 41.5133 87.0123 41.896 86.751 42.4C86.4897 42.904 86.359 43.5013 86.359 44.192C86.359 44.8827 86.4897 45.48 86.751 45.984C87.0123 46.488 87.3763 46.8753 87.843 47.146C88.319 47.4167 88.8603 47.552 89.467 47.552C90.055 47.552 90.587 47.4167 91.063 47.146C91.5483 46.866 91.9263 46.474 92.197 45.97C92.4677 45.4567 92.603 44.864 92.603 44.192ZM95.8489 38.704C95.6996 38.704 95.5736 38.6573 95.4709 38.564C95.3682 38.4613 95.3169 38.326 95.3169 38.158C95.3169 37.9993 95.3682 37.8687 95.4709 37.766C95.5736 37.6633 95.6996 37.612 95.8489 37.612C95.9982 37.612 96.1242 37.6633 96.2269 37.766C96.3296 37.8687 96.3809 37.9993 96.3809 38.158C96.3809 38.326 96.3296 38.4613 96.2269 38.564C96.1242 38.6573 95.9982 38.704 95.8489 38.704ZM96.1569 40.398V48H95.5269V40.398H96.1569ZM99.4044 40.944V45.97C99.4044 46.53 99.507 46.9173 99.7124 47.132C99.9177 47.3373 100.282 47.44 100.804 47.44H101.658V48H100.706C100.044 48 99.5537 47.846 99.2364 47.538C98.9284 47.2207 98.7744 46.698 98.7744 45.97V40.944H97.6264V40.398H98.7744V38.466H99.4044V40.398H101.658V40.944H99.4044ZM102.928 44.192C102.928 43.408 103.082 42.722 103.39 42.134C103.707 41.546 104.141 41.0933 104.692 40.776C105.252 40.4587 105.887 40.3 106.596 40.3C107.399 40.3 108.08 40.496 108.64 40.888C109.2 41.28 109.592 41.7793 109.816 42.386V40.398H110.446V48H109.816V45.998C109.592 46.614 109.195 47.1227 108.626 47.524C108.066 47.916 107.389 48.112 106.596 48.112C105.887 48.112 105.252 47.9533 104.692 47.636C104.141 47.3093 103.707 46.852 103.39 46.264C103.082 45.6667 102.928 44.976 102.928 44.192ZM109.816 44.192C109.816 43.5293 109.676 42.946 109.396 42.442C109.125 41.9287 108.752 41.5367 108.276 41.266C107.8 40.986 107.268 40.846 106.68 40.846C106.064 40.846 105.523 40.9813 105.056 41.252C104.589 41.5133 104.225 41.896 103.964 42.4C103.703 42.904 103.572 43.5013 103.572 44.192C103.572 44.8827 103.703 45.48 103.964 45.984C104.225 46.488 104.589 46.8753 105.056 47.146C105.532 47.4167 106.073 47.552 106.68 47.552C107.268 47.552 107.8 47.4167 108.276 47.146C108.761 46.866 109.139 46.474 109.41 45.97C109.681 45.4567 109.816 44.864 109.816 44.192ZM113.37 37.64V48H112.74V37.64H113.37ZM122.388 38.172C124.05 38.172 125.328 38.606 126.224 39.474C127.13 40.342 127.582 41.5507 127.582 43.1C127.582 44.6493 127.13 45.8533 126.224 46.712C125.328 47.5707 124.05 48 122.388 48H119.63V38.172H122.388ZM122.388 47.468C123.872 47.468 125.002 47.0853 125.776 46.32C126.551 45.5453 126.938 44.472 126.938 43.1C126.938 41.7187 126.551 40.6407 125.776 39.866C125.002 39.0913 123.872 38.704 122.388 38.704H120.26V47.468H122.388ZM130.118 41.966C130.305 41.406 130.636 40.9813 131.112 40.692C131.588 40.3933 132.195 40.244 132.932 40.244V40.902H132.722C131.975 40.902 131.355 41.1167 130.86 41.546C130.365 41.966 130.118 42.6567 130.118 43.618V48H129.488V40.398H130.118V41.966ZM141.228 43.688C141.228 44.024 141.219 44.276 141.2 44.444H134.634C134.653 45.1253 134.802 45.6993 135.082 46.166C135.362 46.6327 135.731 46.9827 136.188 47.216C136.646 47.4493 137.145 47.566 137.686 47.566C138.433 47.566 139.058 47.384 139.562 47.02C140.066 46.6467 140.384 46.1427 140.514 45.508H141.172C141.023 46.2827 140.64 46.9127 140.024 47.398C139.408 47.874 138.629 48.112 137.686 48.112C136.977 48.112 136.342 47.9533 135.782 47.636C135.222 47.3187 134.784 46.866 134.466 46.278C134.149 45.6807 133.99 44.9853 133.99 44.192C133.99 43.3987 134.144 42.708 134.452 42.12C134.77 41.532 135.208 41.084 135.768 40.776C136.328 40.4587 136.968 40.3 137.686 40.3C138.414 40.3 139.044 40.4587 139.576 40.776C140.118 41.084 140.528 41.4993 140.808 42.022C141.088 42.5353 141.228 43.0907 141.228 43.688ZM140.598 43.926C140.626 43.254 140.505 42.6847 140.234 42.218C139.973 41.7513 139.614 41.406 139.156 41.182C138.699 40.9487 138.204 40.832 137.672 40.832C137.14 40.832 136.646 40.9487 136.188 41.182C135.74 41.406 135.372 41.7513 135.082 42.218C134.802 42.6847 134.653 43.254 134.634 43.926H140.598ZM142.74 44.192C142.74 43.408 142.894 42.722 143.202 42.134C143.52 41.546 143.954 41.0933 144.504 40.776C145.064 40.4587 145.699 40.3 146.408 40.3C147.211 40.3 147.892 40.496 148.452 40.888C149.012 41.28 149.404 41.7793 149.628 42.386V40.398H150.258V48H149.628V45.998C149.404 46.614 149.008 47.1227 148.438 47.524C147.878 47.916 147.202 48.112 146.408 48.112C145.699 48.112 145.064 47.9533 144.504 47.636C143.954 47.3093 143.52 46.852 143.202 46.264C142.894 45.6667 142.74 44.976 142.74 44.192ZM149.628 44.192C149.628 43.5293 149.488 42.946 149.208 42.442C148.938 41.9287 148.564 41.5367 148.088 41.266C147.612 40.986 147.08 40.846 146.492 40.846C145.876 40.846 145.335 40.9813 144.868 41.252C144.402 41.5133 144.038 41.896 143.776 42.4C143.515 42.904 143.384 43.5013 143.384 44.192C143.384 44.8827 143.515 45.48 143.776 45.984C144.038 46.488 144.402 46.8753 144.868 47.146C145.344 47.4167 145.886 47.552 146.492 47.552C147.08 47.552 147.612 47.4167 148.088 47.146C148.574 46.866 148.952 46.474 149.222 45.97C149.493 45.4567 149.628 44.864 149.628 44.192ZM161.54 40.244C162.408 40.244 163.118 40.524 163.668 41.084C164.219 41.6347 164.494 42.456 164.494 43.548V48H163.878V43.59C163.878 42.6847 163.659 41.994 163.22 41.518C162.791 41.0327 162.198 40.79 161.442 40.79C160.658 40.79 160.028 41.0607 159.552 41.602C159.076 42.1433 158.838 42.9273 158.838 43.954V48H158.222V43.59C158.222 42.6847 158.003 41.994 157.564 41.518C157.135 41.0327 156.542 40.79 155.786 40.79C155.002 40.79 154.372 41.0607 153.896 41.602C153.42 42.1433 153.182 42.9273 153.182 43.954V48H152.552V40.398H153.182V42.05C153.397 41.4527 153.742 41.0047 154.218 40.706C154.704 40.398 155.259 40.244 155.884 40.244C156.575 40.244 157.168 40.426 157.662 40.79C158.166 41.1447 158.512 41.672 158.698 42.372C158.876 41.672 159.221 41.1447 159.734 40.79C160.248 40.426 160.85 40.244 161.54 40.244ZM169.264 48.112C168.415 48.112 167.719 47.9253 167.178 47.552C166.646 47.1787 166.347 46.6467 166.282 45.956H166.926C166.973 46.4507 167.197 46.8427 167.598 47.132C168.009 47.4213 168.564 47.566 169.264 47.566C169.843 47.566 170.3 47.4213 170.636 47.132C170.981 46.8333 171.154 46.4693 171.154 46.04C171.154 45.7413 171.061 45.4987 170.874 45.312C170.697 45.116 170.473 44.9667 170.202 44.864C169.931 44.7613 169.563 44.6493 169.096 44.528C168.536 44.3787 168.083 44.234 167.738 44.094C167.393 43.9447 167.099 43.7253 166.856 43.436C166.613 43.1467 166.492 42.7593 166.492 42.274C166.492 41.9193 166.599 41.5927 166.814 41.294C167.029 40.986 167.327 40.7433 167.71 40.566C168.093 40.3887 168.527 40.3 169.012 40.3C169.805 40.3 170.445 40.5007 170.93 40.902C171.425 41.294 171.691 41.84 171.728 42.54H171.098C171.07 42.036 170.874 41.6253 170.51 41.308C170.146 40.9907 169.642 40.832 168.998 40.832C168.457 40.832 168.009 40.972 167.654 41.252C167.299 41.532 167.122 41.8727 167.122 42.274C167.122 42.6287 167.22 42.918 167.416 43.142C167.621 43.3567 167.869 43.5247 168.158 43.646C168.457 43.758 168.849 43.8793 169.334 44.01C169.866 44.15 170.291 44.29 170.608 44.43C170.935 44.5607 171.21 44.7567 171.434 45.018C171.658 45.27 171.77 45.6107 171.77 46.04C171.77 46.432 171.663 46.7867 171.448 47.104C171.233 47.4213 170.935 47.6687 170.552 47.846C170.169 48.0233 169.74 48.112 169.264 48.112Z" fill="white" fill-opacity="0.76"/>
<path d="M2.952 12.76C3.256 12.76 3.528 12.84 3.768 13C4.024 13.16 4.176 13.44 4.224 13.84C4.416 15.104 4.536 16.368 4.584 17.632C4.648 18.88 4.68 20.296 4.68 21.88C4.68 22.552 4.624 23.776 4.512 25.552C5.216 25.616 5.76 25.648 6.144 25.648C6.416 25.648 7.032 25.608 7.992 25.528C8.552 25.448 9.04 25.408 9.456 25.408C9.84 25.408 10.192 25.448 10.512 25.528C10.832 25.592 11.16 25.704 11.496 25.864C11.832 26.056 12 26.352 12 26.752C12 27.072 11.896 27.36 11.688 27.616C11.496 27.872 11.264 28 10.992 28C10.8 28 10.496 27.968 10.08 27.904C9.328 27.792 8.608 27.736 7.92 27.736C7.696 27.736 7.44 27.752 7.152 27.784C6.88 27.8 6.68 27.808 6.552 27.808C6.168 27.856 5.784 27.88 5.4 27.88C4.616 27.88 3.912 27.84 3.288 27.76C2.968 27.728 2.648 27.608 2.328 27.4C2.008 27.176 1.848 26.856 1.848 26.44C1.848 26.2 1.88 25.584 1.944 24.592C2.056 22.944 2.112 21.688 2.112 20.824C2.112 20.152 2.08 19.448 2.016 18.712C1.952 17.976 1.912 17.512 1.896 17.32C1.752 15.96 1.68 14.84 1.68 13.96C1.68 13.544 1.776 13.24 1.968 13.048C2.176 12.856 2.504 12.76 2.952 12.76ZM24.7892 27.64C24.5812 27.368 24.4052 27.072 24.2612 26.752C24.1172 26.416 23.9652 26.016 23.8052 25.552C23.7732 25.472 23.6772 25.232 23.5172 24.832C23.3732 24.432 23.2052 24.088 23.0132 23.8C22.0052 23.944 21.1812 24.016 20.5412 24.016C20.1892 24.016 19.7972 24.008 19.3652 23.992C18.9492 23.96 18.6372 23.944 18.4292 23.944C17.6292 23.88 16.9892 23.848 16.5092 23.848C16.3172 24.104 16.1492 24.376 16.0052 24.664C15.8772 24.952 15.7092 25.384 15.5012 25.96C15.2132 26.792 14.9652 27.384 14.7572 27.736C14.6132 27.976 14.3332 28.096 13.9172 28.096C13.5652 28.096 13.2372 28.024 12.9332 27.88C12.6452 27.72 12.5012 27.504 12.5012 27.232C12.6292 26.624 12.8292 25.984 13.1012 25.312C13.3892 24.624 13.7972 23.712 14.3252 22.576L15.2852 20.224C15.8132 18.88 16.2932 17.728 16.7252 16.768C17.1732 15.808 17.7572 14.672 18.4772 13.36C18.5732 13.168 18.7332 13.008 18.9572 12.88C19.1812 12.736 19.4292 12.664 19.7012 12.664C20.0052 12.664 20.2212 12.688 20.3492 12.736C20.4932 12.768 20.6052 12.832 20.6852 12.928C20.7652 13.008 20.8852 13.184 21.0452 13.456C21.5892 14.304 22.0532 15.176 22.4372 16.072C22.8372 16.968 23.3412 18.208 23.9492 19.792L24.4532 21.064C24.9012 22.216 25.2852 23.184 25.6052 23.968C25.9412 24.736 26.3092 25.44 26.7092 26.08C26.9652 26.496 27.0932 26.784 27.0932 26.944C27.0932 27.328 26.9732 27.624 26.7332 27.832C26.5092 28.024 26.2132 28.12 25.8452 28.12C25.3812 28.12 25.0292 27.96 24.7892 27.64ZM22.3172 21.832C22.0612 21.288 21.6932 20.344 21.2132 19C20.7172 17.56 20.2212 16.416 19.7252 15.568C19.4212 16.336 18.9732 17.328 18.3812 18.544C17.9812 19.296 17.5252 20.384 17.0132 21.808C18.0372 21.936 19.1412 22 20.3252 22C21.1732 22 21.8372 21.944 22.3172 21.832ZM41.6768 23.152C41.6768 24.048 41.3328 24.904 40.6448 25.72C39.9728 26.52 39.1168 27.152 38.0768 27.616C37.6288 27.76 37.0608 27.88 36.3728 27.976C35.6848 28.056 34.9888 28.104 34.2848 28.12C32.9088 28.12 31.6288 27.928 30.4448 27.544C30.2368 27.496 29.9968 27.36 29.7248 27.136C29.4528 26.912 29.3248 26.616 29.3408 26.248V25.432C29.3408 24.536 29.3168 23.672 29.2688 22.84C29.2368 21.752 29.2208 20.92 29.2208 20.344L29.1968 17.632C29.1968 16.672 29.2288 15.704 29.2928 14.728C29.3088 14.232 29.4928 13.816 29.8448 13.48C30.2128 13.128 30.6688 12.912 31.2128 12.832C31.4208 12.816 31.7968 12.808 32.3408 12.808L34.6448 12.832C35.7488 12.832 36.7328 12.976 37.5968 13.264C38.4608 13.552 39.2048 14.016 39.8288 14.656C40.0368 14.896 40.2048 15.216 40.3328 15.616C40.4608 16 40.5248 16.376 40.5248 16.744C40.4768 18.04 39.7328 19.096 38.2928 19.912C39.4448 20.056 40.2928 20.416 40.8368 20.992C41.3968 21.568 41.6768 22.288 41.6768 23.152ZM32.6048 19.336C32.7648 19.32 33.0208 19.312 33.3728 19.312H34.4528C34.9328 19.312 35.2688 19.296 35.4608 19.264C37.0928 18.896 37.9088 18.248 37.9088 17.32C37.9088 17.08 37.8688 16.824 37.7888 16.552C37.7248 16.28 37.6368 16.088 37.5248 15.976C37.1088 15.576 36.7168 15.32 36.3488 15.208C35.9808 15.08 35.4368 15.016 34.7168 15.016C33.3248 15.016 32.3248 15.088 31.7168 15.232L31.7408 19.36L32.6048 19.336ZM33.7088 26.104C35.3728 26.104 36.6768 25.896 37.6208 25.48C38.5808 25.064 39.0608 24.248 39.0608 23.032C39.0608 22.552 38.7088 22.16 38.0048 21.856C37.3008 21.536 36.5328 21.376 35.7008 21.376C34.6768 21.376 33.9568 21.4 33.5408 21.448C33.1888 21.48 32.9488 21.496 32.8208 21.496C32.5808 21.496 32.4128 21.488 32.3168 21.472C32.2368 21.472 32.1408 21.472 32.0288 21.472C31.9328 21.456 31.8288 21.456 31.7168 21.472L31.7408 22.264C31.7568 22.456 31.7808 22.984 31.8128 23.848C31.8608 24.696 31.8688 25.296 31.8368 25.648C32.2048 25.808 32.5248 25.928 32.7968 26.008C33.0688 26.072 33.3728 26.104 33.7088 26.104ZM51.6568 28.024C50.6008 28.024 49.6328 27.896 48.7528 27.64C47.8728 27.368 47.1528 26.976 46.5928 26.464C45.5688 25.552 44.8488 24.56 44.4328 23.488C44.0328 22.4 43.8328 21.016 43.8328 19.336C43.8328 18.984 43.8808 18.656 43.9768 18.352C44.0888 18.032 44.2328 17.68 44.4088 17.296C44.4568 17.184 44.5288 17.008 44.6248 16.768C44.7368 16.512 44.8088 16.28 44.8408 16.072C45.1448 15.512 45.6568 14.976 46.3768 14.464C47.1128 13.952 47.9048 13.544 48.7528 13.24C49.6008 12.92 50.3448 12.76 50.9848 12.76C54.0728 12.76 56.2808 13.816 57.6088 15.928C58.3608 17.16 58.7368 18.4 58.7368 19.648C58.7368 21.264 58.4408 22.68 57.8488 23.896C57.2728 25.112 56.4728 26.056 55.4488 26.728C54.8088 27.112 54.1528 27.424 53.4808 27.664C52.8088 27.904 52.2008 28.024 51.6568 28.024ZM46.3288 21.112C46.3128 21.992 46.4968 22.72 46.8808 23.296C47.2808 23.856 47.9048 24.472 48.7528 25.144C49.3928 25.384 49.8408 25.544 50.0968 25.624C50.3528 25.704 50.6328 25.744 50.9368 25.744C51.9768 25.744 52.8968 25.528 53.6968 25.096C54.4968 24.664 55.1128 24.072 55.5448 23.32C55.9928 22.568 56.2168 21.728 56.2168 20.8C56.2168 19.584 56.0808 18.624 55.8088 17.92C55.5368 17.216 55.0488 16.584 54.3448 16.024C53.9768 15.72 53.5048 15.496 52.9288 15.352C52.3688 15.208 51.7688 15.136 51.1288 15.136C49.5928 15.136 48.4008 15.68 47.5528 16.768C46.7208 17.84 46.3128 19.288 46.3288 21.112ZM69.7451 21.64C71.1371 24.008 72.4411 25.888 73.6571 27.28C73.7851 27.408 73.8491 27.552 73.8491 27.712C73.8491 27.92 73.7211 28.096 73.4651 28.24C73.2091 28.4 72.9131 28.48 72.5771 28.48C72.0811 28.48 71.5451 28.272 70.9691 27.856C70.5531 27.568 70.1691 27.144 69.8171 26.584C69.4651 26.008 69.0651 25.272 68.6171 24.376L68.2091 23.56C67.7931 22.808 67.5451 22.368 67.4651 22.24C67.1131 22.384 66.7051 22.488 66.2411 22.552C65.7771 22.616 65.2091 22.672 64.5371 22.72C64.5691 24.768 64.5851 26.2 64.5851 27.016C64.5851 27.32 64.4731 27.568 64.2491 27.76C64.0251 27.936 63.7451 28.024 63.4091 28.024C62.9931 28.024 62.6731 27.856 62.4491 27.52C62.2251 27.072 62.1131 26.376 62.1131 25.432L62.1371 23.68C62.1371 22.592 62.1611 21.56 62.2091 20.584C62.2411 19.304 62.2571 18.36 62.2571 17.752L62.2811 16.528C62.2811 16.16 62.2571 15.784 62.2091 15.4C61.9531 15.32 61.7291 15.2 61.5371 15.04C61.3451 14.864 61.2491 14.672 61.2491 14.464C61.2491 14.064 61.3931 13.76 61.6811 13.552C61.9851 13.328 62.3611 13.184 62.8091 13.12C64.1051 12.912 65.3691 12.808 66.6011 12.808C68.6971 12.808 70.4331 13.2 71.8091 13.984C73.1851 14.768 73.8731 15.96 73.8731 17.56C73.8731 18.056 73.7611 18.536 73.5371 19C73.3291 19.448 73.0411 19.824 72.6731 20.128C71.7131 20.88 70.7371 21.384 69.7451 21.64ZM71.3291 17.488C71.3291 16.72 70.9211 16.096 70.1051 15.616C69.3051 15.12 68.1531 14.872 66.6491 14.872C65.9931 14.872 65.3211 14.952 64.6331 15.112C64.6651 15.688 64.6811 16.096 64.6811 16.336C64.6811 16.816 64.6491 17.504 64.5851 18.4C64.5531 19.296 64.5371 20.016 64.5371 20.56C65.6091 20.56 66.6331 20.416 67.6091 20.128C68.3131 19.92 68.9051 19.72 69.3851 19.528C69.8651 19.336 70.3051 19.072 70.7051 18.736C71.1211 18.384 71.3291 17.968 71.3291 17.488ZM87.2462 23.656C87.2462 24.408 87.0702 25.056 86.7182 25.6C86.3822 26.128 85.8222 26.616 85.0382 27.064C84.5102 27.384 83.8942 27.624 83.1902 27.784C82.4862 27.944 81.7742 28.024 81.0542 28.024C80.3182 28.024 79.4062 27.784 78.3182 27.304C77.5342 26.92 76.9102 26.464 76.4462 25.936C75.9982 25.408 75.7742 24.832 75.7742 24.208C75.7742 23.776 75.8702 23.464 76.0622 23.272C76.2542 23.064 76.5662 22.96 76.9982 22.96C77.2222 22.96 77.4542 23.056 77.6942 23.248C77.9342 23.424 78.0782 23.6 78.1262 23.776C78.3502 24.432 78.7422 24.936 79.3022 25.288C79.8622 25.624 80.5582 25.792 81.3902 25.792C82.3502 25.792 83.1502 25.616 83.7902 25.264C84.4462 24.912 84.7742 24.44 84.7742 23.848C84.7742 23.272 84.4222 22.76 83.7182 22.312C83.0142 21.864 82.2942 21.552 81.5582 21.376C80.5022 21.088 79.5662 20.744 78.7502 20.344C77.9022 19.928 77.2702 19.416 76.8542 18.808C76.4382 18.2 76.2302 17.56 76.2302 16.888C76.2302 16.264 76.4462 15.632 76.8782 14.992C77.3102 14.336 77.8222 13.864 78.4142 13.576C78.7342 13.416 79.2782 13.248 80.0462 13.072C80.8302 12.88 81.3982 12.784 81.7502 12.784C82.2142 12.784 82.7262 12.84 83.2862 12.952C83.8462 13.064 84.3022 13.224 84.6542 13.432C85.3582 13.832 85.8782 14.192 86.2142 14.512C86.5502 14.832 86.7182 15.232 86.7182 15.712C86.7182 16 86.6062 16.256 86.3822 16.48C86.1742 16.704 85.8062 16.816 85.2782 16.816C85.1502 16.816 85.0222 16.76 84.8942 16.648C84.7662 16.536 84.6062 16.368 84.4142 16.144C84.1582 15.808 83.9102 15.584 83.6702 15.472C83.4302 15.392 83.0782 15.304 82.6142 15.208C82.1662 15.112 81.7662 15.064 81.4142 15.064C81.0302 15.064 80.6302 15.144 80.2142 15.304C79.7982 15.464 79.4462 15.696 79.1582 16C78.8862 16.288 78.7502 16.624 78.7502 17.008C78.7502 17.328 78.8942 17.608 79.1822 17.848C79.4862 18.072 79.8462 18.256 80.2622 18.4C80.7422 18.592 81.2622 18.76 81.8222 18.904C82.5582 19.128 83.1582 19.336 83.6222 19.528C84.1022 19.704 84.5662 19.928 85.0142 20.2C85.7982 20.664 86.3662 21.144 86.7182 21.64C87.0702 22.12 87.2462 22.792 87.2462 23.656ZM102.345 12.736C103.369 12.736 104.249 12.864 104.985 13.12C105.737 13.376 106.401 13.768 106.977 14.296C107.985 15.208 108.689 16.208 109.089 17.296C109.505 18.368 109.713 19.744 109.713 21.424C109.713 21.84 109.657 22.232 109.545 22.6C109.433 22.952 109.265 23.384 109.041 23.896L108.729 24.664C108.505 25.272 108.041 25.84 107.337 26.368C106.633 26.88 105.841 27.288 104.961 27.592C104.081 27.896 103.281 28.048 102.561 28.048C101.089 28.048 99.8014 27.808 98.6974 27.328C97.6094 26.832 96.7054 26.056 95.9854 25C95.6174 24.44 95.3294 23.816 95.1214 23.128C94.9134 22.424 94.8094 21.752 94.8094 21.112C94.8094 19.48 95.0974 18.064 95.6734 16.864C96.2654 15.648 97.0814 14.704 98.1214 14.032C98.7134 13.68 99.4174 13.376 100.233 13.12C101.065 12.864 101.769 12.736 102.345 12.736ZM97.3534 21.112C97.3534 21.944 97.5534 22.72 97.9534 23.44C98.3694 24.144 98.9214 24.704 99.6094 25.12C100.313 25.536 101.081 25.744 101.913 25.744C103.625 25.744 104.929 25.312 105.825 24.448C106.737 23.584 107.193 22.368 107.193 20.8C107.193 19.584 107.057 18.624 106.785 17.92C106.513 17.216 106.025 16.584 105.321 16.024C104.937 15.704 104.521 15.48 104.073 15.352C103.641 15.208 103.129 15.136 102.537 15.136C101.513 15.136 100.609 15.392 99.8254 15.904C99.0414 16.416 98.4334 17.128 98.0014 18.04C97.5694 18.952 97.3534 19.976 97.3534 21.112ZM113.786 28.072C113.418 28.072 113.138 27.976 112.946 27.784C112.754 27.576 112.658 27.368 112.658 27.16C112.754 26.584 112.81 25.968 112.826 25.312C112.842 24.656 112.85 24.264 112.85 24.136V23.272C112.85 22.616 112.842 22.04 112.826 21.544C112.81 21.032 112.794 20.6 112.778 20.248C112.714 18.84 112.682 17.744 112.682 16.96V16.216C112.714 15.448 112.754 14.776 112.802 14.2C112.818 13.976 112.954 13.736 113.21 13.48C113.482 13.224 113.85 13.064 114.314 13C115.834 12.84 117.722 12.76 119.978 12.76H120.746C121.306 12.76 121.858 12.864 122.402 13.072C122.962 13.28 123.242 13.632 123.242 14.128C123.242 14.464 123.162 14.736 123.002 14.944C122.842 15.136 122.53 15.232 122.066 15.232C121.858 15.232 121.618 15.216 121.346 15.184C121.074 15.152 120.882 15.128 120.77 15.112C120.162 15.016 119.69 14.968 119.354 14.968C117.498 14.968 116.09 15.096 115.13 15.352V16.672V19.432C116.218 19.432 117.354 19.384 118.538 19.288C119.402 19.224 119.962 19.192 120.218 19.192C120.586 19.192 120.898 19.28 121.154 19.456C121.426 19.616 121.562 19.864 121.562 20.2C121.562 21.032 120.994 21.448 119.858 21.448C119.586 21.448 119.178 21.48 118.634 21.544C118.026 21.608 117.554 21.64 117.218 21.64C117.01 21.64 116.714 21.624 116.33 21.592C115.834 21.56 115.498 21.552 115.322 21.568C115.306 21.984 115.314 22.632 115.346 23.512L115.37 25.12C115.37 25.664 115.362 26.072 115.346 26.344C115.33 26.6 115.282 26.88 115.202 27.184C115.154 27.44 115.01 27.656 114.77 27.832C114.53 27.992 114.202 28.072 113.786 28.072ZM129.006 14.008C129.006 13.32 129.51 12.976 130.518 12.976C130.95 12.976 131.774 12.992 132.99 13.024C134.334 13.088 135.35 13.12 136.038 13.12C136.598 13.12 137.278 13.088 138.078 13.024C138.622 12.992 138.966 12.976 139.11 12.976C139.99 13.008 140.734 13.168 141.342 13.456C141.518 13.536 141.662 13.632 141.774 13.744C141.886 13.856 141.942 14.04 141.942 14.296C141.942 14.648 141.83 14.952 141.606 15.208C141.382 15.448 141.11 15.568 140.79 15.568C140.438 15.568 139.926 15.52 139.254 15.424C138.662 15.312 138.142 15.256 137.694 15.256C137.262 15.256 136.934 15.264 136.71 15.28C136.662 15.808 136.638 17.072 136.638 19.072C136.638 21.456 136.71 23.872 136.854 26.32L136.902 27.016C136.902 27.672 136.526 28 135.774 28C135.182 28 134.782 27.864 134.574 27.592C134.366 27.304 134.262 26.872 134.262 26.296C134.262 25.16 134.23 23.744 134.166 22.048C134.102 20.64 134.07 19.64 134.07 19.048C134.07 18.648 134.118 17.424 134.214 15.376L131.406 15.4C130.51 15.4 129.886 15.32 129.534 15.16C129.182 14.984 129.006 14.6 129.006 14.008ZM153.763 24.736C154.067 24.736 154.291 24.856 154.435 25.096C154.595 25.32 154.675 25.568 154.675 25.84C154.675 26.176 154.619 26.416 154.507 26.56C154.411 26.688 154.219 26.824 153.931 26.968C153.259 27.288 152.427 27.544 151.435 27.736C150.443 27.928 149.379 28.024 148.243 28.024C146.819 28.024 145.771 27.784 145.099 27.304C144.443 26.824 144.035 26.248 143.875 25.576C143.731 24.888 143.659 23.992 143.659 22.888C143.659 21.704 143.707 20.544 143.803 19.408C143.899 18.256 144.067 16.792 144.307 15.016C144.419 14.248 144.723 13.696 145.219 13.36C145.715 13.008 146.259 12.832 146.851 12.832C147.347 12.832 148.155 12.816 149.275 12.784L151.363 12.76C152.227 12.76 152.851 12.784 153.235 12.832C153.715 12.928 154.067 13.04 154.291 13.168C154.531 13.28 154.651 13.48 154.651 13.768C154.651 14.088 154.539 14.4 154.315 14.704C154.107 15.008 153.787 15.16 153.355 15.16C152.859 15.16 152.147 15.128 151.219 15.064C150.291 15 149.595 14.968 149.131 14.968C148.731 14.968 148.339 14.992 147.955 15.04C147.507 15.072 147.187 15.128 146.995 15.208C146.803 15.288 146.691 15.424 146.659 15.616C146.435 17.264 146.323 18.48 146.323 19.264C146.691 19.312 147.051 19.336 147.403 19.336C147.851 19.336 148.331 19.312 148.843 19.264C149.355 19.216 149.683 19.184 149.827 19.168C150.675 19.088 151.403 19.048 152.011 19.048C152.363 19.048 152.627 19.112 152.803 19.24C152.995 19.368 153.091 19.544 153.091 19.768C153.091 20.12 152.995 20.392 152.803 20.584C152.627 20.776 152.307 20.92 151.843 21.016C151.283 21.128 150.587 21.216 149.755 21.28C148.939 21.344 148.139 21.376 147.355 21.376C147.083 21.376 146.707 21.36 146.227 21.328C146.179 22.304 146.155 23.208 146.155 24.04C146.155 25.176 146.907 25.744 148.411 25.744C149.211 25.744 149.875 25.688 150.403 25.576C150.931 25.464 151.539 25.304 152.227 25.096C152.867 24.856 153.379 24.736 153.763 24.736ZM168.878 14.68C169.118 14.968 169.286 15.2 169.382 15.376C169.478 15.552 169.526 15.72 169.526 15.88C169.526 16.072 169.398 16.296 169.142 16.552C168.902 16.808 168.662 16.936 168.422 16.936C168.102 16.936 167.846 16.888 167.654 16.792C167.462 16.696 167.302 16.544 167.174 16.336C166.918 15.952 166.606 15.624 166.238 15.352C165.87 15.064 165.294 14.92 164.51 14.92C163.838 14.92 163.07 15.072 162.206 15.376C161.358 15.68 160.75 16.056 160.382 16.504C160.062 16.904 159.782 17.512 159.542 18.328C159.318 19.144 159.206 19.936 159.206 20.704C159.206 21.632 159.406 22.488 159.806 23.272C160.222 24.04 160.814 24.656 161.582 25.12C162.366 25.584 163.302 25.816 164.39 25.816C164.982 25.816 165.59 25.704 166.214 25.48C166.854 25.24 167.406 24.856 167.87 24.328H167.846C168.134 24.024 168.494 23.872 168.926 23.872C169.182 23.872 169.422 23.984 169.646 24.208C169.886 24.432 170.006 24.656 170.006 24.88C170.006 25.12 169.966 25.336 169.886 25.528C169.822 25.704 169.694 25.904 169.502 26.128C168.846 26.864 168.07 27.368 167.174 27.64C166.278 27.912 165.206 28.048 163.958 28.048C162.854 28.048 161.734 27.784 160.598 27.256C159.478 26.728 158.614 26.088 158.006 25.336C157.686 24.872 157.374 24.208 157.07 23.344C156.782 22.464 156.638 21.752 156.638 21.208C156.638 19.816 156.846 18.496 157.262 17.248C157.694 15.984 158.334 14.976 159.182 14.224C159.742 13.712 160.55 13.328 161.605 13.072C162.662 12.816 163.63 12.688 164.51 12.688C165.582 12.688 166.422 12.84 167.03 13.144C167.654 13.432 168.27 13.944 168.878 14.68ZM183.171 19.408C183.155 19.152 183.147 18.768 183.147 18.256V17.344C183.147 16.736 183.131 16.28 183.099 15.976C183.067 15.72 183.051 15.056 183.051 13.984C183.051 13.6 183.163 13.304 183.387 13.096C183.627 12.872 183.947 12.76 184.347 12.76C184.859 12.76 185.203 12.872 185.379 13.096C185.555 13.32 185.643 13.688 185.643 14.2V15.112L185.619 17.752C185.603 18.264 185.595 19.032 185.595 20.056L185.619 22.024C185.635 22.328 185.643 22.752 185.643 23.296C185.643 23.728 185.659 24.344 185.691 25.144C185.723 25.88 185.739 26.432 185.739 26.8C185.739 27.104 185.651 27.384 185.475 27.64C185.315 27.896 185.091 28.024 184.803 28.024C183.683 28.024 183.123 27.648 183.123 26.896C183.123 26.48 183.139 26.016 183.171 25.504C183.203 25.136 183.219 24.576 183.219 23.824C183.219 23.296 183.203 22.536 183.171 21.544C182.419 21.608 181.123 21.64 179.283 21.64C178.131 21.64 177.235 21.64 176.595 21.64C175.955 21.624 175.491 21.584 175.203 21.52L175.179 24.28C175.179 24.456 175.219 24.928 175.299 25.696C175.379 26.208 175.419 26.656 175.419 27.04C175.419 27.28 175.275 27.512 174.987 27.736C174.715 27.944 174.459 28.048 174.219 28.048C173.643 28.048 173.251 27.912 173.043 27.64C172.835 27.352 172.731 26.92 172.731 26.344L172.707 24.448C172.691 24.224 172.683 23.912 172.683 23.512C172.683 22.92 172.667 22.112 172.635 21.088C172.603 20.16 172.587 19.488 172.587 19.072C172.587 18.448 172.603 17.576 172.635 16.456C172.667 15.4 172.683 14.616 172.683 14.104C172.683 13.592 172.811 13.248 173.067 13.072C173.323 12.896 173.611 12.808 173.931 12.808C174.827 12.808 175.275 13.104 175.275 13.696C175.275 14.752 175.251 15.76 175.203 16.72C175.171 17.936 175.155 18.824 175.155 19.384C175.619 19.496 176.107 19.568 176.619 19.6C177.131 19.632 177.851 19.648 178.779 19.648C180.667 19.648 182.131 19.568 183.171 19.408Z" fill="#FB7957"/>
</svg>
